<?xml version="1.0" encoding="UTF-8" standalone="no"?>
<svg
   xmlns:dc="http://purl.org/dc/elements/1.1/"
   xmlns:cc="http://creativecommons.org/ns#"
   xmlns:rdf="http://www.w3.org/1999/02/22-rdf-syntax-ns#"
   xmlns:svg="http://www.w3.org/2000/svg"
   xmlns="http://www.w3.org/2000/svg"
   viewBox="0 0 200 199.96001"
   height="199.96001"
   width="200"
   xml:space="preserve"
   id="svg2"
   version="1.1"><defs
     id="defs6" /><g
     transform="matrix(1.3333333,0,0,-1.3333333,0,199.96)"
     id="g10"><g
       transform="scale(0.1)"
       id="g12"><path
         id="path14"
         style="fill:#4eb9e8;fill-opacity:1;fill-rule:nonzero;stroke:none"
         d="M 1500,749.867 C 1500,335.719 1164.22,0 750,0 335.789,0 0,335.719 0,749.867 0,1164 335.789,1499.73 750,1499.73 c 414.22,0 750,-335.73 750,-749.863" /><path
         id="path16"
         style="fill:#2e2d2d;fill-opacity:1;fill-rule:nonzero;stroke:none"
         d="M 819.004,276.98 H 680.996 c -11.047,0 -20.078,9.04 -20.078,20.079 v 576.152 c 0,11.039 9.031,20.078 20.078,20.078 h 138.008 c 11.043,0 20.078,-9.039 20.078,-20.078 V 297.059 c 0,-11.039 -9.035,-20.079 -20.078,-20.079" /><path
         id="path18"
         style="fill:#ffffff;fill-opacity:1;fill-rule:nonzero;stroke:none"
         d="m 787.461,305.059 h -74.914 v 16.39 h 74.914 v -16.39" /><path
         id="path20"
         style="fill:#a0a4bf;fill-opacity:1;fill-rule:nonzero;stroke:none"
         d="m 697.188,903.125 h 105.625 v 237.992 H 697.188 Z" /><path
         id="path22"
         style="fill:#939bb1;fill-opacity:1;fill-rule:nonzero;stroke:none"
         d="m 697.188,939.73 v 0 177.15 -12.29 h 7.675 v -81.2 h -7.675 v -83.66" /><path
         id="path24"
         style="fill:#939bb1;fill-opacity:1;fill-rule:nonzero;stroke:none"
         d="m 802.617,1023.39 h 0.19531 v 81.1992 H 802.617 Z" /><path
         id="path26"
         style="fill:#f4f5fa;fill-opacity:1;fill-rule:nonzero;stroke:none"
         d="m 720.184,939.73 h 59.6289 v 96.1211 H 720.184 Z" /><path
         id="path28"
         style="fill:#ffffff;fill-opacity:1;fill-rule:nonzero;stroke:none"
         d="m 737.988,1070.46 -17.804,-34.61 h 59.601 l -17.805,34.61 h -23.992" /><path
         id="path30"
         style="fill:#ffffff;fill-opacity:1;fill-rule:nonzero;stroke:none"
         d="m 738.066,1070.46 h 23.8672 v 46.418 H 738.066 Z" /><path
         id="path32"
         style="fill:#6d769b;fill-opacity:1;fill-rule:nonzero;stroke:none"
         d="m 749.805,939.73 h -52.617 7.675 v 83.66 h 15.321 v -83.66 h 29.621" /><path
         id="path34"
         style="fill:#667292;fill-opacity:1;fill-rule:nonzero;stroke:none"
         d="m 697.188,939.73 h 7.67578 v 83.6563 H 697.188 Z" /><path
         id="path36"
         style="fill:#667292;fill-opacity:1;fill-rule:nonzero;stroke:none"
         d="m 802.617,939.73 h 0.19531 v 83.6563 H 802.617 Z" /><path
         id="path38"
         style="fill:#9aa0bc;fill-opacity:1;fill-rule:nonzero;stroke:none"
         d="m 720.184,939.73 h 29.6211 v 83.6563 H 720.184 Z" /><path
         id="path40"
         style="fill:#232529;fill-opacity:1;fill-rule:nonzero;stroke:none"
         d="m 660.918,762.605 h 178.164 v 95 H 660.918 Z" /><path
         id="path42"
         style="fill:#282626;fill-opacity:1;fill-rule:nonzero;stroke:none"
         d="m 727.078,1151.29 v 66.62 c 0,2.72 2.199,4.92 4.914,4.92 h 36.016 c 2.715,0 4.922,-2.2 4.922,-4.92 v -66.62 h -45.852" /><path
         id="path44"
         style="fill:#383738;fill-opacity:1;fill-rule:nonzero;stroke:none"
         d="m 772.93,1151.29 h -45.852 l -29.89,-10.17 h 105.625 l -29.883,10.17" /><path
         id="path46"
         style="fill:#282626;fill-opacity:1;fill-rule:nonzero;stroke:none"
         d="m 697.188,903.125 h 105.625 v 36.6055 H 697.188 Z" /><path
         id="path48"
         style="fill:#333232;fill-opacity:1;fill-rule:nonzero;stroke:none"
         d="m 710.086,909.098 c 0,-0.926 -0.762,-1.684 -1.688,-1.684 -0.929,0 -1.691,0.758 -1.691,1.684 v 24.652 c 0,0.93 0.762,1.688 1.691,1.688 0.926,0 1.688,-0.758 1.688,-1.688 v -24.652" /><path
         id="path50"
         style="fill:#333232;fill-opacity:1;fill-rule:nonzero;stroke:none"
         d="m 720.488,909.098 c 0,-0.926 -0.761,-1.684 -1.691,-1.684 -0.926,0 -1.688,0.758 -1.688,1.684 v 24.652 c 0,0.93 0.762,1.688 1.688,1.688 0.93,0 1.691,-0.758 1.691,-1.688 v -24.652" /><path
         id="path52"
         style="fill:#333232;fill-opacity:1;fill-rule:nonzero;stroke:none"
         d="m 730.887,909.098 c 0,-0.926 -0.762,-1.684 -1.688,-1.684 -0.929,0 -1.691,0.758 -1.691,1.684 v 24.652 c 0,0.93 0.762,1.688 1.691,1.688 0.926,0 1.688,-0.758 1.688,-1.688 v -24.652" /><path
         id="path54"
         style="fill:#333232;fill-opacity:1;fill-rule:nonzero;stroke:none"
         d="m 741.289,909.098 c 0,-0.926 -0.754,-1.684 -1.691,-1.684 -0.926,0 -1.688,0.758 -1.688,1.684 v 24.652 c 0,0.93 0.762,1.688 1.688,1.688 0.937,0 1.691,-0.758 1.691,-1.688 v -24.652" /><path
         id="path56"
         style="fill:#333232;fill-opacity:1;fill-rule:nonzero;stroke:none"
         d="m 751.688,909.098 c 0,-0.926 -0.75,-1.684 -1.688,-1.684 -0.93,0 -1.691,0.758 -1.691,1.684 v 24.652 c 0,0.93 0.761,1.688 1.691,1.688 0.938,0 1.688,-0.758 1.688,-1.688 v -24.652" /><path
         id="path58"
         style="fill:#333232;fill-opacity:1;fill-rule:nonzero;stroke:none"
         d="m 762.09,909.098 c 0,-0.926 -0.762,-1.684 -1.692,-1.684 -0.925,0 -1.687,0.758 -1.687,1.684 v 24.652 c 0,0.93 0.762,1.688 1.687,1.688 0.93,0 1.692,-0.758 1.692,-1.688 v -24.652" /><path
         id="path60"
         style="fill:#333232;fill-opacity:1;fill-rule:nonzero;stroke:none"
         d="m 772.488,909.098 c 0,-0.926 -0.761,-1.684 -1.687,-1.684 -0.93,0 -1.692,0.758 -1.692,1.684 v 24.652 c 0,0.93 0.762,1.688 1.692,1.688 0.926,0 1.687,-0.758 1.687,-1.688 v -24.652" /><path
         id="path62"
         style="fill:#333232;fill-opacity:1;fill-rule:nonzero;stroke:none"
         d="m 782.891,909.098 c 0,-0.926 -0.762,-1.684 -1.692,-1.684 -0.926,0 -1.687,0.758 -1.687,1.684 v 24.652 c 0,0.93 0.761,1.688 1.687,1.688 0.93,0 1.692,-0.758 1.692,-1.688 v -24.652" /><path
         id="path64"
         style="fill:#333232;fill-opacity:1;fill-rule:nonzero;stroke:none"
         d="m 793.289,909.098 c 0,-0.926 -0.762,-1.684 -1.687,-1.684 -0.93,0 -1.692,0.758 -1.692,1.684 v 24.652 c 0,0.93 0.762,1.688 1.692,1.688 0.925,0 1.687,-0.758 1.687,-1.688 v -24.652" /><path
         id="path66"
         style="fill:#282626;fill-opacity:1;fill-rule:nonzero;stroke:none"
         d="m 697.188,1104.59 h 105.625 v 36.5313 H 697.188 Z" /><path
         id="path68"
         style="fill:#333232;fill-opacity:1;fill-rule:nonzero;stroke:none"
         d="m 710.086,1110.52 c 0,-0.92 -0.762,-1.68 -1.688,-1.68 -0.929,0 -1.691,0.76 -1.691,1.68 v 24.65 c 0,0.94 0.762,1.69 1.691,1.69 0.926,0 1.688,-0.75 1.688,-1.69 v -24.65" /><path
         id="path70"
         style="fill:#333232;fill-opacity:1;fill-rule:nonzero;stroke:none"
         d="m 720.488,1110.52 c 0,-0.92 -0.761,-1.68 -1.691,-1.68 -0.926,0 -1.688,0.76 -1.688,1.68 v 24.65 c 0,0.94 0.762,1.69 1.688,1.69 0.93,0 1.691,-0.75 1.691,-1.69 v -24.65" /><path
         id="path72"
         style="fill:#333232;fill-opacity:1;fill-rule:nonzero;stroke:none"
         d="m 730.887,1110.52 c 0,-0.92 -0.762,-1.68 -1.688,-1.68 -0.929,0 -1.691,0.76 -1.691,1.68 v 24.65 c 0,0.94 0.762,1.69 1.691,1.69 0.926,0 1.688,-0.75 1.688,-1.69 v -24.65" /><path
         id="path74"
         style="fill:#333232;fill-opacity:1;fill-rule:nonzero;stroke:none"
         d="m 741.289,1110.52 c 0,-0.92 -0.754,-1.68 -1.691,-1.68 -0.926,0 -1.688,0.76 -1.688,1.68 v 24.65 c 0,0.94 0.762,1.69 1.688,1.69 0.937,0 1.691,-0.75 1.691,-1.69 v -24.65" /><path
         id="path76"
         style="fill:#333232;fill-opacity:1;fill-rule:nonzero;stroke:none"
         d="m 751.688,1110.52 c 0,-0.92 -0.75,-1.68 -1.688,-1.68 -0.93,0 -1.691,0.76 -1.691,1.68 v 24.65 c 0,0.94 0.761,1.69 1.691,1.69 0.938,0 1.688,-0.75 1.688,-1.69 v -24.65" /><path
         id="path78"
         style="fill:#333232;fill-opacity:1;fill-rule:nonzero;stroke:none"
         d="m 762.09,1110.52 c 0,-0.92 -0.762,-1.68 -1.692,-1.68 -0.925,0 -1.687,0.76 -1.687,1.68 v 24.65 c 0,0.94 0.762,1.69 1.687,1.69 0.93,0 1.692,-0.75 1.692,-1.69 v -24.65" /><path
         id="path80"
         style="fill:#333232;fill-opacity:1;fill-rule:nonzero;stroke:none"
         d="m 772.488,1110.52 c 0,-0.92 -0.761,-1.68 -1.687,-1.68 -0.93,0 -1.692,0.76 -1.692,1.68 v 24.65 c 0,0.94 0.762,1.69 1.692,1.69 0.926,0 1.687,-0.75 1.687,-1.69 v -24.65" /><path
         id="path82"
         style="fill:#333232;fill-opacity:1;fill-rule:nonzero;stroke:none"
         d="m 782.891,1110.52 c 0,-0.92 -0.762,-1.68 -1.692,-1.68 -0.926,0 -1.687,0.76 -1.687,1.68 v 24.65 c 0,0.94 0.761,1.69 1.687,1.69 0.93,0 1.692,-0.75 1.692,-1.69 v -24.65" /><path
         id="path84"
         style="fill:#333232;fill-opacity:1;fill-rule:nonzero;stroke:none"
         d="m 793.289,1110.52 c 0,-0.92 -0.762,-1.68 -1.687,-1.68 -0.93,0 -1.692,0.76 -1.692,1.68 v 24.65 c 0,0.94 0.762,1.69 1.692,1.69 0.925,0 1.687,-0.75 1.687,-1.69 v -24.65" /><path
         id="path86"
         style="fill:#868bab;fill-opacity:1;fill-rule:nonzero;stroke:none"
         d="m 795.137,1023.39 h -15.324 v 12.46 h -0.028 l -17.805,34.61 h -0.046 v 34.13 h 33.203 v -81.2" /><path
         id="path88"
         style="fill:#7c85a0;fill-opacity:1;fill-rule:nonzero;stroke:none"
         d="m 795.137,1023.39 h 7.48047 v 81.1992 H 795.137 Z" /><path
         id="path90"
         style="fill:#c5c7d8;fill-opacity:1;fill-rule:nonzero;stroke:none"
         d="m 779.813,1023.39 h -30.008 v 12.46 h 30.008 v -12.46" /><path
         id="path92"
         style="fill:#cdcddc;fill-opacity:1;fill-rule:nonzero;stroke:none"
         d="m 779.785,1035.85 h -29.98 v 34.61 h 12.175 l 17.805,-34.61" /><path
         id="path94"
         style="fill:#cdcddc;fill-opacity:1;fill-rule:nonzero;stroke:none"
         d="m 749.805,1070.46 h 12.1289 v 34.1211 H 749.805 Z" /><path
         id="path96"
         style="fill:#5f698f;fill-opacity:1;fill-rule:nonzero;stroke:none"
         d="m 802.617,939.73 h -52.812 30.008 v 83.66 h 15.324 v -83.66 h 7.48" /><path
         id="path98"
         style="fill:#5a6687;fill-opacity:1;fill-rule:nonzero;stroke:none"
         d="m 795.137,939.73 h 7.48047 v 83.6563 H 795.137 Z" /><path
         id="path100"
         style="fill:#8188a9;fill-opacity:1;fill-rule:nonzero;stroke:none"
         d="m 749.805,939.73 h 30.0078 v 83.6563 H 749.805 Z" /><path
         id="path102"
         style="fill:#232324;fill-opacity:1;fill-rule:nonzero;stroke:none"
         d="m 802.617,903.125 h -52.812 v 4.301 c 0.062,-0.008 0.129,-0.012 0.195,-0.012 0.938,0 1.688,0.758 1.688,1.684 v 24.652 c 0,0.93 -0.75,1.688 -1.688,1.688 -0.066,0 -0.133,-0.004 -0.195,-0.012 v 4.304 h 52.812 v -36.605 m -11.015,32.313 c -0.93,0 -1.692,-0.758 -1.692,-1.688 v -24.652 c 0,-0.926 0.762,-1.684 1.692,-1.684 0.925,0 1.687,0.758 1.687,1.684 v 24.652 c 0,0.93 -0.762,1.688 -1.687,1.688 m -10.403,0 c -0.926,0 -1.687,-0.758 -1.687,-1.688 v -24.652 c 0,-0.926 0.761,-1.684 1.687,-1.684 0.93,0 1.692,0.758 1.692,1.684 v 24.652 c 0,0.93 -0.762,1.688 -1.692,1.688 m -10.398,0 c -0.93,0 -1.692,-0.758 -1.692,-1.688 v -24.652 c 0,-0.926 0.762,-1.684 1.692,-1.684 0.926,0 1.687,0.758 1.687,1.684 v 24.652 c 0,0.93 -0.761,1.688 -1.687,1.688 m -10.403,0 c -0.925,0 -1.687,-0.758 -1.687,-1.688 v -24.652 c 0,-0.926 0.762,-1.684 1.687,-1.684 0.93,0 1.692,0.758 1.692,1.684 v 24.652 c 0,0.93 -0.762,1.688 -1.692,1.688" /><path
         id="path104"
         style="fill:#2d2e30;fill-opacity:1;fill-rule:nonzero;stroke:none"
         d="m 750,907.414 c -0.066,0 -0.133,0.004 -0.195,0.012 v 28 c 0.062,0.008 0.129,0.012 0.195,0.012 0.938,0 1.688,-0.758 1.688,-1.688 v -24.652 c 0,-0.926 -0.75,-1.684 -1.688,-1.684" /><path
         id="path106"
         style="fill:#2d2e30;fill-opacity:1;fill-rule:nonzero;stroke:none"
         d="m 760.398,907.414 c -0.925,0 -1.687,0.758 -1.687,1.684 v 24.652 c 0,0.93 0.762,1.688 1.687,1.688 0.93,0 1.692,-0.758 1.692,-1.688 v -24.652 c 0,-0.926 -0.762,-1.684 -1.692,-1.684" /><path
         id="path108"
         style="fill:#43a0ce;fill-opacity:1;fill-rule:nonzero;stroke:none"
         d="m 787.07,1146.48 -14.14,4.81 h 0.175 l 13.965,-4.81" /><path
         id="path110"
         style="fill:#232324;fill-opacity:1;fill-rule:nonzero;stroke:none"
         d="m 772.723,1151.29 h -22.918 v 71.54 h 18.008 c 2.714,0 4.91,-2.2 4.91,-4.92 v -66.62" /><path
         id="path112"
         style="fill:#313235;fill-opacity:1;fill-rule:nonzero;stroke:none"
         d="m 802.617,1141.12 h -52.812 v 10.17 h 23.125 l 14.14,-4.81 15.547,-5.36" /><path
         id="path114"
         style="fill:#2d2e30;fill-opacity:1;fill-rule:nonzero;stroke:none"
         d="m 770.801,907.414 c -0.93,0 -1.692,0.758 -1.692,1.684 v 24.652 c 0,0.93 0.762,1.688 1.692,1.688 0.926,0 1.687,-0.758 1.687,-1.688 v -24.652 c 0,-0.926 -0.761,-1.684 -1.687,-1.684" /><path
         id="path116"
         style="fill:#2d2e30;fill-opacity:1;fill-rule:nonzero;stroke:none"
         d="m 781.199,907.414 c -0.926,0 -1.687,0.758 -1.687,1.684 v 24.652 c 0,0.93 0.761,1.688 1.687,1.688 0.93,0 1.692,-0.758 1.692,-1.688 v -24.652 c 0,-0.926 -0.762,-1.684 -1.692,-1.684" /><path
         id="path118"
         style="fill:#2d2e30;fill-opacity:1;fill-rule:nonzero;stroke:none"
         d="m 791.602,907.414 c -0.93,0 -1.692,0.758 -1.692,1.684 v 24.652 c 0,0.93 0.762,1.688 1.692,1.688 0.925,0 1.687,-0.758 1.687,-1.688 v -24.652 c 0,-0.926 -0.762,-1.684 -1.687,-1.684" /><path
         id="path120"
         style="fill:#232324;fill-opacity:1;fill-rule:nonzero;stroke:none"
         d="m 802.617,1104.59 h -52.812 v 4.26 c 0.062,-0.01 0.129,-0.01 0.195,-0.01 0.938,0 1.688,0.76 1.688,1.68 v 24.65 c 0,0.94 -0.75,1.69 -1.688,1.69 -0.066,0 -0.133,0 -0.195,-0.01 v 4.27 h 52.812 v -24.24 -12.29 m -11.015,32.27 c -0.93,0 -1.692,-0.75 -1.692,-1.69 v -24.65 c 0,-0.92 0.762,-1.68 1.692,-1.68 0.925,0 1.687,0.76 1.687,1.68 v 24.65 c 0,0.94 -0.762,1.69 -1.687,1.69 m -10.403,0 c -0.926,0 -1.687,-0.75 -1.687,-1.69 v -24.65 c 0,-0.92 0.761,-1.68 1.687,-1.68 0.93,0 1.692,0.76 1.692,1.68 v 24.65 c 0,0.94 -0.762,1.69 -1.692,1.69 m -10.398,0 c -0.93,0 -1.692,-0.75 -1.692,-1.69 v -24.65 c 0,-0.92 0.762,-1.68 1.692,-1.68 0.926,0 1.687,0.76 1.687,1.68 v 24.65 c 0,0.94 -0.761,1.69 -1.687,1.69 m -10.403,0 c -0.925,0 -1.687,-0.75 -1.687,-1.69 v -24.65 c 0,-0.92 0.762,-1.68 1.687,-1.68 0.93,0 1.692,0.76 1.692,1.68 v 24.65 c 0,0.94 -0.762,1.69 -1.692,1.69" /><path
         id="path122"
         style="fill:#2d2e30;fill-opacity:1;fill-rule:nonzero;stroke:none"
         d="m 750,1108.84 c -0.066,0 -0.133,0 -0.195,0.01 v 28 c 0.062,0.01 0.129,0.01 0.195,0.01 0.938,0 1.688,-0.75 1.688,-1.69 v -24.65 c 0,-0.92 -0.75,-1.68 -1.688,-1.68" /><path
         id="path124"
         style="fill:#2d2e30;fill-opacity:1;fill-rule:nonzero;stroke:none"
         d="m 760.398,1108.84 c -0.925,0 -1.687,0.76 -1.687,1.68 v 24.65 c 0,0.94 0.762,1.69 1.687,1.69 0.93,0 1.692,-0.75 1.692,-1.69 v -24.65 c 0,-0.92 -0.762,-1.68 -1.692,-1.68" /><path
         id="path126"
         style="fill:#2d2e30;fill-opacity:1;fill-rule:nonzero;stroke:none"
         d="m 770.801,1108.84 c -0.93,0 -1.692,0.76 -1.692,1.68 v 24.65 c 0,0.94 0.762,1.69 1.692,1.69 0.926,0 1.687,-0.75 1.687,-1.69 v -24.65 c 0,-0.92 -0.761,-1.68 -1.687,-1.68" /><path
         id="path128"
         style="fill:#2d2e30;fill-opacity:1;fill-rule:nonzero;stroke:none"
         d="m 781.199,1108.84 c -0.926,0 -1.687,0.76 -1.687,1.68 v 24.65 c 0,0.94 0.761,1.69 1.687,1.69 0.93,0 1.692,-0.75 1.692,-1.69 v -24.65 c 0,-0.92 -0.762,-1.68 -1.692,-1.68" /><path
         id="path130"
         style="fill:#2d2e30;fill-opacity:1;fill-rule:nonzero;stroke:none"
         d="m 791.602,1108.84 c -0.93,0 -1.692,0.76 -1.692,1.68 v 24.65 c 0,0.94 0.762,1.69 1.692,1.69 0.925,0 1.687,-0.75 1.687,-1.69 v -24.65 c 0,-0.92 -0.762,-1.68 -1.687,-1.68" /><path
         id="path132"
         style="fill:#a0a4bf;fill-opacity:1;fill-rule:nonzero;stroke:none"
         d="M 802.813,893.289 H 697.188 v 9.836 h 105.625 v -9.836" /><path
         id="path134"
         style="fill:#ffffff;fill-opacity:1;fill-rule:nonzero;stroke:none"
         d="m 782.305,810.105 c 0,-17.949 -14.551,-32.5 -32.5,-32.5 -17.95,0 -32.5,14.551 -32.5,32.5 0,17.95 14.55,32.5 32.5,32.5 17.949,0 32.5,-14.55 32.5,-32.5" /></g></g></svg>
