<?xml version="1.0" encoding="utf-8"?>
<!-- Generator: Adobe Illustrator 21.0.2, SVG Export Plug-In . SVG Version: 6.00 Build 0)  -->
<svg version="1.1" id="Layer_1" xmlns="http://www.w3.org/2000/svg" xmlns:xlink="http://www.w3.org/1999/xlink" x="0px" y="0px"
	 viewBox="0 0 150 150" style="enable-background:new 0 0 150 150;" xml:space="preserve">
<style type="text/css">
	.st0{fill:#0EB4E3;}
	.st1{fill:#8B91A0;}
	.st2{fill:#474747;}
	.st3{fill:#A1A8BD;}
	.st4{fill:#333333;}
	.st5{fill:#FFFFFF;}
</style>
<ellipse class="st0" cx="75" cy="75" rx="75" ry="75"/>
<g>
	<defs>
		<ellipse id="SVGID_1_" cx="75" cy="75" rx="75" ry="75"/>
	</defs>
	<clipPath id="SVGID_2_">
		<use xlink:href="#SVGID_1_"  style="overflow:visible;"/>
	</clipPath>
</g>
<g>
	<path class="st0" d="M75,60.3c-7,0-12.7,5.7-12.7,12.7S68,85.7,75,85.7c7,0,12.7-5.7,12.7-12.7S82,60.3,75,60.3z M82.6,69.7
		l-8.4,10c-0.3,0.3-0.7,0.5-1.1,0.5h0c-0.4,0-0.8-0.2-1.1-0.5l-4.5-5.2c-0.5-0.6-0.5-1.5,0.1-2c0.6-0.5,1.5-0.5,2,0.1l3.4,3.9
		l7.3-8.7c0.5-0.6,1.4-0.7,2-0.2C83.1,68.3,83.1,69.1,82.6,69.7z"/>
</g>
<g>
	<g>
		<g>
			<path class="st1" d="M96.4,104.1c-8.9-2.6-12.2-7.9-12.2-13.2c0-2.2,0-8.9,0-8.9H65.7c0,0,0,6.7,0,8.9c0,5.4-3.2,10.6-12.2,13.2
				c-6.7,2-12.7,4.2-17,7.3c10.7,8.1,24,13,38.4,13s27.8-4.8,38.4-13C109.1,108.4,103.1,106.1,96.4,104.1z"/>
			<path class="st2" d="M61.1,60.7c0,0-8.7-4.2-10.2-12.9c-1.5-8.7,5.3-16.1,12-14.8c0,0,10.3-17.3,28.4-2.3
				c18.2,15.1,0.7,27.2-2.5,30H61.1z"/>
			
				<ellipse transform="matrix(0.9955 -9.493006e-02 9.493006e-02 0.9955 -5.7687 5.8106)" class="st1" cx="58.2" cy="63.5" rx="2.9" ry="4.8"/>
			<path class="st1" d="M88.9,63.3c-0.3,2.7,0.8,4.9,2.4,5.1c1.6,0.2,3.1-1.9,3.4-4.5c0.3-2.7-0.8-4.9-2.4-5.1
				C90.7,58.6,89.2,60.6,88.9,63.3z"/>
			<path class="st3" d="M58.7,39.6v32.7c0,9,7.3,16.3,16.3,16.3c9,0,16.3-7.3,16.3-16.3V39.6H58.7z"/>
			<path class="st2" d="M64.4,37.7c0,0,0,11.4,15.6,12.7c8.1,0.7,10.1,3.6,11.3,5.7c0,0,7.1-13.7,1.8-18.4
				C87.8,33,72.5,30.9,64.4,37.7z"/>
			<path class="st2" d="M70.7,43.4c0,0-7.9,1.6-12,10.3c0,0-6.7-7.6-3.4-11.6C58.5,38.1,66.4,37.2,70.7,43.4z"/>
			<path class="st4" d="M96.4,104.1c-2.7-0.8-4.9-1.8-6.7-3.1c-1.9,5.1-7.8,8.8-14.7,8.8c-6.9,0-12.8-3.7-14.7-8.8
				c-1.7,1.2-3.9,2.3-6.7,3.1c-6.7,2-12.7,4.2-17,7.3c10.7,8.1,24,13,38.4,13s27.8-4.8,38.4-13C109.1,108.4,103.1,106.1,96.4,104.1z
				"/>
		</g>
	</g>
</g>
<g>
	<path class="st5" d="M87.4,73.3c1-0.8,2.1-1.6,3.3-2.3c1.2-0.7,2.4-1.4,3.8-1.9s2.8-1,4.3-1.3c1.6-0.3,3.2-0.5,5-0.5
		c2.5,0,4.8,0.3,6.9,1c2,0.7,3.8,1.6,5.2,2.9c1.4,1.3,2.5,2.8,3.3,4.5c0.8,1.8,1.2,3.7,1.2,5.9c0,2-0.3,3.8-0.8,5.3
		c-0.6,1.5-1.3,2.8-2.1,3.9c-0.9,1.1-1.8,2.1-2.9,2.9s-2,1.6-3,2.2c-0.9,0.7-1.7,1.4-2.4,2c-0.7,0.7-1.1,1.4-1.3,2.3l-1.1,5.7h-8.6
		l-0.9-6.5c-0.2-1.3-0.1-2.5,0.4-3.5c0.5-1,1.2-1.9,2-2.7c0.8-0.8,1.8-1.6,2.9-2.3c1.1-0.7,2-1.5,3-2.3s1.7-1.7,2.3-2.8
		c0.6-1,1-2.2,1-3.6c0-1.6-0.5-2.9-1.6-3.9c-1.1-1-2.5-1.4-4.4-1.4c-1.4,0-2.6,0.1-3.6,0.4c-1,0.3-1.8,0.6-2.5,1
		c-0.7,0.4-1.3,0.7-1.8,1c-0.5,0.3-1,0.4-1.5,0.4c-1.2,0-2-0.5-2.6-1.5L87.4,73.3z M94.8,120.5c0-1,0.2-1.9,0.5-2.7
		c0.4-0.8,0.9-1.6,1.5-2.2c0.6-0.6,1.4-1.1,2.2-1.5c0.9-0.4,1.8-0.5,2.8-0.5c1,0,1.9,0.2,2.8,0.5c0.9,0.4,1.6,0.9,2.3,1.5
		c0.6,0.6,1.2,1.4,1.5,2.2c0.4,0.8,0.5,1.7,0.5,2.7c0,1-0.2,1.9-0.5,2.7s-0.9,1.6-1.5,2.2c-0.7,0.6-1.4,1.1-2.3,1.5
		c-0.9,0.4-1.8,0.5-2.8,0.5c-1,0-2-0.2-2.8-0.5c-0.9-0.3-1.6-0.8-2.2-1.5c-0.6-0.6-1.1-1.4-1.5-2.2C95,122.4,94.8,121.5,94.8,120.5z
		"/>
</g>
</svg>
