<svg width="150px" height="150px" viewBox="0 0 150 150" version="1.1" xmlns="http://www.w3.org/2000/svg" xmlns:xlink="http://www.w3.org/1999/xlink">
    <!-- Generator: Sketch 42 (36781) - http://www.bohemiancoding.com/sketch -->
    <desc>Created with Sketch.</desc>
    <defs>
        <polygon id="path-1" points="0 149.94 0 0.027 150 0.027 150 149.94"></polygon>
    </defs>
    <g id="Icon-Doctor" stroke="none" stroke-width="1" fill="none" fill-rule="evenodd">
        <g id="Group-3">
            <mask id="mask-2" fill="white">
                <use xlink:href="#path-1"></use>
            </mask>
            <g id="Clip-2"></g>
            <path d="M150,75.013 C150,116.427 116.422,150 75,150 C33.579,150 0,116.427 0,75.013 C0,33.6 33.579,0.027 75,0.027 C116.422,0.027 150,33.6 150,75.013" id="Fill-1" fill="#28ABD2" mask="url(#mask-2)"></path>
        </g>
        <g id="Group-13" transform="translate(35.000000, 13.000000)">
            <path d="M75.155,92.762 C75.155,94.733 73.558,96.331 71.587,96.331 L6.161,96.331 C4.189,96.331 2.592,94.733 2.592,92.762 L2.592,33.285 C2.592,31.314 4.189,29.717 6.161,29.717 L71.587,29.717 C73.558,29.717 75.155,31.314 75.155,33.285 L75.155,92.762" id="Fill-4" fill="#FFFFFF"></path>
            <path d="M6.161,31.501 C5.177,31.501 4.376,32.3 4.376,33.285 L4.376,92.762 C4.376,93.747 5.177,94.547 6.161,94.547 L71.587,94.547 C72.57,94.547 73.371,93.747 73.371,92.762 L73.371,33.285 C73.371,32.3 72.57,31.501 71.587,31.501 L6.161,31.501 Z M71.587,98.115 L6.161,98.115 C3.209,98.115 0.807,95.714 0.807,92.762 L0.807,33.285 C0.807,30.333 3.209,27.932 6.161,27.932 L71.587,27.932 C74.539,27.932 76.94,30.333 76.94,33.285 L76.94,92.762 C76.94,95.714 74.539,98.115 71.587,98.115 L71.587,98.115 Z" id="Fill-6" fill="#2D2E2C"></path>
            <polygon id="Fill-7" fill="#28ABD2" points="7.945 90.978 69.803 90.978 69.803 35.07 7.945 35.07"></polygon>
            <polyline id="Fill-8" fill="#FFFFFF" points="59.204 57.473 53.847 48.194 44.231 53.746 44.231 42.642 33.518 42.642 33.518 53.746 23.902 48.194 18.545 57.473 28.16 63.025 18.545 68.574 23.902 77.853 33.518 72.301 33.518 83.405 44.231 83.405 44.231 72.301 53.847 77.853 59.204 68.574 49.589 63.025 59.204 57.473"></polyline>
            <path d="M35.302,81.621 L42.447,81.621 L42.447,69.212 L53.193,75.416 L56.766,69.228 L46.02,63.025 L56.766,56.82 L53.193,50.632 L42.447,56.835 L42.447,44.426 L35.302,44.426 L35.302,56.835 L24.556,50.632 L20.982,56.82 L31.728,63.025 L20.982,69.228 L24.556,75.416 L35.302,69.212 L35.302,81.621 Z M46.015,85.19 L31.733,85.19 L31.733,75.393 L23.249,80.291 L16.106,67.922 L24.591,63.025 L16.106,58.126 L23.249,45.756 L31.733,50.654 L31.733,40.858 L46.015,40.858 L46.015,50.654 L54.5,45.756 L61.642,58.126 L53.157,63.025 L61.642,67.922 L54.5,80.291 L46.015,75.393 L46.015,85.19 L46.015,85.19 Z" id="Fill-9" fill="#2D2E2C"></path>
            <polygon id="Fill-10" fill="#2D2E2C" points="85.624 125.476 89.192 125.476 89.192 0.573 85.624 0.573"></polygon>
            <polygon id="Fill-11" fill="#2D2E2C" points="76.702 45.182 88.598 45.182 88.598 41.613 76.702 41.613"></polygon>
            <polygon id="Fill-12" fill="#2D2E2C" points="76.702 84.437 88.598 84.437 88.598 80.868 76.702 80.868"></polygon>
        </g>
    </g>
</svg>
