<?xml version="1.0" encoding="utf-8"?>
<!-- Generator: Adobe Illustrator 21.0.2, SVG Export Plug-In . SVG Version: 6.00 Build 0)  -->
<svg version="1.1" id="Layer_1" xmlns="http://www.w3.org/2000/svg" xmlns:xlink="http://www.w3.org/1999/xlink" x="0px" y="0px"
	 viewBox="0 0 150 150" style="enable-background:new 0 0 150 150;" xml:space="preserve">
<style type="text/css">
	.st0{fill:#0EB4E3;}
	.st1{fill:#F1F2F7;}
	.st2{fill:#FFFFFF;}
	.st3{fill:#474747;}
</style>
<ellipse class="st0" cx="75" cy="75" rx="75" ry="75"/>
<g>
	<defs>
		<ellipse id="SVGID_1_" cx="75" cy="75" rx="75" ry="75"/>
	</defs>
	<clipPath id="SVGID_2_">
		<use xlink:href="#SVGID_1_"  style="overflow:visible;"/>
	</clipPath>
</g>
<g>
	<g>
		<g>
			<g>
				<rect x="37.7" y="30.3" class="st1" width="69.5" height="88.6"/>
			</g>
		</g>
		<g>
			<g>
				<rect x="42.8" y="30.3" class="st2" width="69.5" height="88.6"/>
			</g>
		</g>
		<g>
			<g>
				<rect x="95.7" y="73.9" class="st2" width="13.3" height="1.5"/>
			</g>
		</g>
		<g>
			<g>
				<rect x="95.7" y="76.9" class="st2" width="8.3" height="1.5"/>
			</g>
		</g>
		<g>
			<g>
				<rect x="46.7" y="72.6" class="st2" width="13" height="1.5"/>
			</g>
		</g>
		<g>
			<g>
				<rect x="46.7" y="74.7" class="st2" width="13" height="1.5"/>
			</g>
		</g>
		<g>
			<g>
				<rect x="95.9" y="98.1" class="st2" width="13" height="1.5"/>
			</g>
		</g>
		<g>
			<g>
				<rect x="95.9" y="100.2" class="st2" width="13" height="1.5"/>
			</g>
		</g>
		<g>
			<g>
				<rect x="95.9" y="102.3" class="st2" width="13" height="1.5"/>
			</g>
		</g>
	</g>
</g>
<g>
	<path class="st3" d="M75,47.8c15.1,0,27.3,12.3,27.2,27.4C102.1,90,89.9,102.2,75,102.2c-15,0-27.2-12.3-27.2-27.3
		C47.9,60,60.1,47.8,75,47.8z M71.1,55.7c-8.1,1.1-16.5,9.1-15.9,20.5c0.5,10.6,10,19.1,20.6,18.5C87.3,94.1,95.3,84.7,94.8,74
		c-0.5-10.8-9.3-17.7-16.1-18.2c0,7.1,0,14.2,0,21.5c2.1-2.5,4-4.8,6-7c0.6-0.7,1.5-1.2,2.4-1.4c1.7-0.4,2.9,0.6,3.7,1.9
		c0.9,1.4,0.6,2.8-0.5,4c-4,4.8-8.1,9.6-12.1,14.4c-2.1,2.5-4.2,2.5-6.3,0c-4-4.6-7.9-9.3-11.8-14c-1.7-2.1-1.7-4.1,0.1-5.5
		c1.7-1.4,3.6-1.1,5.3,0.8c1.8,2.1,3.6,4.2,5.7,6.6C71.1,69.7,71.1,62.7,71.1,55.7z"/>
</g>
</svg>
