<?xml version="1.0" encoding="utf-8"?>
<!-- Generator: Adobe Illustrator 21.0.2, SVG Export Plug-In . SVG Version: 6.00 Build 0)  -->
<svg version="1.1" id="Layer_1" xmlns="http://www.w3.org/2000/svg" xmlns:xlink="http://www.w3.org/1999/xlink" x="0px" y="0px"
	 viewBox="0 0 150 150" style="enable-background:new 0 0 150 150;" xml:space="preserve">
<style type="text/css">
	.st0{fill:#0EB4E3;}
	.st1{fill:#E3E8EF;}
	.st2{clip-path:url(#SVGID_2_);}
	.st3{fill:#A1A8BD;}
</style>
<ellipse class="st0" cx="75" cy="75" rx="75" ry="75"/>
<g>
	<g>
		<path class="st1" d="M76.7,117.6c0,0.9-0.8,1.7-1.7,1.7l0,0c-0.9,0-1.7-0.8-1.7-1.7V73.8c0-0.9,0.8-1.7,1.7-1.7l0,0
			c0.9,0,1.7,0.8,1.7,1.7V117.6z"/>
	</g>
	<g>
		<defs>
			<circle id="SVGID_1_" cx="75" cy="54.9" r="20.2"/>
		</defs>
		<use xlink:href="#SVGID_1_"  style="overflow:visible;fill:#333333;"/>
		<clipPath id="SVGID_2_">
			<use xlink:href="#SVGID_1_"  style="overflow:visible;"/>
		</clipPath>
		<g class="st2">
			<path class="st3" d="M78.8,87.7c-9.8,0-19-3.8-26-10.8C47.2,71.3,44,63.8,44,55.8s3.1-15.5,8.7-21.1c4.6-4.6,10.7-7.1,17.2-7.1
				s12.6,2.5,17.2,7.1c7.8,7.8,7.8,20.4,0,28.2c-6.4,6.4-16.8,6.4-23.2,0c-2.6-2.6-4-6-4-9.6c0-3.6,1.4-7,4-9.6c2.1-2.1,5-3.3,8-3.3
				c3,0,5.9,1.2,8,3.3c1.8,1.8,2.8,4.2,2.8,6.7c0,2.5-1,4.9-2.8,6.7c-1.5,1.5-3.5,2.4-5.7,2.4c-2.2,0-4.2-0.8-5.7-2.4
				c-0.9-0.9-0.9-2.3,0-3.2c0.9-0.9,2.3-0.9,3.2,0c1.3,1.3,3.6,1.3,4.9,0c0.9-0.9,1.4-2.2,1.4-3.5s-0.5-2.6-1.4-3.5
				c-1.3-1.3-3-2-4.8-2s-3.5,0.7-4.8,2c-1.7,1.7-2.6,4-2.6,6.4c0,2.4,0.9,4.7,2.6,6.4c4.6,4.6,12.1,4.6,16.7,0c6-6,6-15.7,0-21.7
				c-3.7-3.7-8.7-5.8-14-5.8c-5.3,0-10.2,2.1-14,5.8c-9.9,9.9-9.9,25.9,0,35.8c6.1,6.1,14.2,9.4,22.7,9.4c8.6,0,16.7-3.3,22.7-9.4
				c0.9-0.9,2.3-0.9,3.2,0c0.9,0.9,0.9,2.3,0,3.2C97.8,83.9,88.6,87.7,78.8,87.7z"/>
		</g>
	</g>
</g>
</svg>
