<?xml version="1.0" encoding="UTF-8" standalone="no"?>
<svg
   xmlns:dc="http://purl.org/dc/elements/1.1/"
   xmlns:cc="http://creativecommons.org/ns#"
   xmlns:rdf="http://www.w3.org/1999/02/22-rdf-syntax-ns#"
   xmlns:svg="http://www.w3.org/2000/svg"
   xmlns="http://www.w3.org/2000/svg"
   viewBox="0 0 200 199.96001"
   height="199.96001"
   width="200"
   xml:space="preserve"
   id="svg2"
   version="1.1"><defs
     id="defs6" /><g
     transform="matrix(1.3333333,0,0,-1.3333333,0,199.96)"
     id="g10"><g
       transform="scale(0.1)"
       id="g12"><path
         id="path14"
         style="fill:#4eb9e8;fill-opacity:1;fill-rule:nonzero;stroke:none"
         d="M 1500,749.867 C 1500,335.73 1164.22,0 750,0 335.789,0 0,335.73 0,749.867 0,1164 335.789,1499.73 750,1499.73 c 414.22,0 750,-335.73 750,-749.863" /><path
         id="path16"
         style="fill:#ffffff;fill-opacity:1;fill-rule:nonzero;stroke:none"
         d="m 735.664,984.574 c -7.297,-6.484 -18.457,-6.261 -25.449,0.731 L 326.824,601.918 c -13.398,-13.406 -13.418,-35.145 -0.008,-48.543 L 407,473.199 c 17.492,17.5 45.891,17.5 63.391,0 17.507,-17.5 17.507,-45.89 0,-63.39 l 80.175,-80.18 c 13.407,-13.41 35.137,-13.399 48.543,0 L 982.488,713.02 c -6.992,7.003 -7.207,18.164 -0.73,25.453 L 735.664,984.574" /><path
         id="path18"
         style="fill:#f4f5fa;fill-opacity:1;fill-rule:nonzero;stroke:none"
         d="m 960.527,714.664 c -1.113,5.191 -1.269,10.406 -0.293,15.621 l 0.137,0.559 -226.211,226.203 -0.558,-0.067 c -5.184,-0.976 -10.489,-0.91 -15.614,0.2 l -0.644,0.156 -372.949,-372.973 c -5.352,-5.414 -5.352,-14.175 0,-19.504 l 68.007,-68.007 0.692,0.347 c 25.051,12.227 55.207,7.149 74.863,-12.488 19.707,-19.731 24.727,-49.879 12.57,-74.961 l -0.363,-0.691 68.02,-67.989 c 5.339,-5.34 14.089,-5.34 19.433,0 l 373.035,373.02 -0.125,0.574" /><path
         id="path20"
         style="fill:#2e2d2d;fill-opacity:1;fill-rule:nonzero;stroke:none"
         d="m 777.195,970.816 c 7.266,-7.25 7.266,-19.003 0.02,-26.25 -7.254,-7.246 -19.024,-7.246 -26.258,-0.003 -7.266,7.25 -7.266,19.015 0,26.265 7.234,7.231 19.004,7.231 26.238,-0.012" /><path
         id="path22"
         style="fill:#2e2d2d;fill-opacity:1;fill-rule:nonzero;stroke:none"
         d="m 1132.43,932.207 c -7.25,7.254 -7.25,19 -0.02,26.25 l -13.11,13.129 c -7.26,-7.254 -19.01,-7.238 -26.26,0.004 -7.25,7.25 -7.26,19 0,26.25 l -13.12,13.12 c -7.25,-7.25 -19,-7.23 -26.26,0.02 -7.24,7.25 -7.24,19 0,26.24 l -13.13,13.13 c -7.25,-7.24 -19,-7.24 -26.25,0.01 -7.25,7.25 -7.26,19 -0.01,26.25 l -13.12,13.13 c -7.263,-7.25 -19.013,-7.24 -26.248,0 -7.246,7.26 -7.257,19 -0.019,26.26 l -13.125,13.11 c -7.246,-7.23 -18.996,-7.23 -26.242,0.02 -7.254,7.25 -7.266,19 -0.008,26.25 l -24.551,24.55 -171.426,-171.43 c 7.246,-7.26 7.227,-19.012 0,-26.246 L 985.566,736.223 c 7.227,7.238 19.004,7.246 26.244,-0.016 l 171.42,171.441 -24.55,24.559 c -7.25,-7.258 -19,-7.254 -26.25,0" /><path
         id="path24"
         style="fill:#efece6;fill-opacity:1;fill-rule:nonzero;stroke:none"
         d="m 777.195,970.816 c 7.266,-7.25 7.266,-19.003 0.02,-26.25 l -26.258,26.262 c 7.234,7.231 19.004,7.231 26.238,-0.012" /><path
         id="path26"
         style="fill:#2e2d2d;fill-opacity:1;fill-rule:nonzero;stroke:none"
         d="m 816.59,931.438 c 7.246,-7.25 7.246,-19.008 0,-26.254 -7.235,-7.243 -19.004,-7.243 -26.258,-0.004 -7.246,7.254 -7.227,19.008 0.008,26.258 7.246,7.238 18.996,7.246 26.25,0" /><path
         id="path28"
         style="fill:#efece6;fill-opacity:1;fill-rule:nonzero;stroke:none"
         d="m 816.59,931.438 c 7.246,-7.25 7.246,-19.008 0,-26.254 l -26.25,26.254 c 7.246,7.238 18.996,7.246 26.25,0" /><path
         id="path30"
         style="fill:#2e2d2d;fill-opacity:1;fill-rule:nonzero;stroke:none"
         d="m 855.977,892.059 c 7.246,-7.258 7.246,-19.02 0.007,-26.262 -7.254,-7.246 -19.011,-7.246 -26.269,0 -7.246,7.258 -7.235,19.012 0.012,26.262 7.246,7.242 18.992,7.246 26.25,0" /><path
         id="path32"
         style="fill:#efece6;fill-opacity:1;fill-rule:nonzero;stroke:none"
         d="m 855.977,892.059 c 7.246,-7.258 7.246,-19.02 0.007,-26.262 l -26.257,26.262 c 7.246,7.242 18.992,7.246 26.25,0" /><path
         id="path34"
         style="fill:#2e2d2d;fill-opacity:1;fill-rule:nonzero;stroke:none"
         d="m 895.352,852.668 c 7.253,-7.246 7.253,-19.008 0.019,-26.25 -7.266,-7.254 -19.023,-7.254 -26.269,0 -7.258,7.25 -7.239,19.004 0,26.262 7.246,7.234 19.003,7.246 26.25,-0.012" /><path
         id="path36"
         style="fill:#efece6;fill-opacity:1;fill-rule:nonzero;stroke:none"
         d="m 895.352,852.668 c 7.253,-7.246 7.253,-19.008 0.019,-26.25 l -26.269,26.262 c 7.246,7.234 19.003,7.246 26.25,-0.012" /><path
         id="path38"
         style="fill:#2e2d2d;fill-opacity:1;fill-rule:nonzero;stroke:none"
         d="m 934.746,813.289 c 7.246,-7.25 7.227,-19.008 0,-26.25 -7.258,-7.242 -19.004,-7.258 -26.262,-0.004 -7.254,7.254 -7.246,19.008 0,26.254 7.246,7.242 19.004,7.25 26.262,0" /><path
         id="path40"
         style="fill:#efece6;fill-opacity:1;fill-rule:nonzero;stroke:none"
         d="m 934.746,813.289 c 7.246,-7.25 7.227,-19.008 0,-26.25 l -26.262,26.25 c 7.246,7.242 19.004,7.25 26.262,0" /><path
         id="path42"
         style="fill:#2e2d2d;fill-opacity:1;fill-rule:nonzero;stroke:none"
         d="m 974.109,773.902 c 7.258,-7.246 7.258,-19.011 0.012,-26.25 -7.238,-7.25 -19.004,-7.257 -26.262,0 -7.246,7.254 -7.246,19.012 0,26.258 7.246,7.238 19.016,7.238 26.25,-0.008" /><path
         id="path44"
         style="fill:#efece6;fill-opacity:1;fill-rule:nonzero;stroke:none"
         d="m 974.109,773.902 c 7.258,-7.246 7.258,-19.011 0.012,-26.25 l -26.262,26.258 c 7.246,7.238 19.016,7.238 26.25,-0.008" /><path
         id="path46"
         style="fill:#a0a4bf;fill-opacity:1;fill-rule:nonzero;stroke:none"
         d="M 741.59,801.914 509.414,569.73 486.25,592.906 718.426,825.082 741.59,801.914" /><path
         id="path48"
         style="fill:#a0a4bf;fill-opacity:1;fill-rule:nonzero;stroke:none"
         d="M 786.004,757.504 553.828,525.324 530.645,548.5 762.84,780.68 786.004,757.504" /><path
         id="path50"
         style="fill:#a0a4bf;fill-opacity:1;fill-rule:nonzero;stroke:none"
         d="M 830.41,713.098 598.242,480.922 575.059,504.094 807.234,736.266 830.41,713.098" /><path
         id="path52"
         style="fill:#f4f5fa;fill-opacity:1;fill-rule:nonzero;stroke:none"
         d="m 916.484,1086.75 -94.179,-94.18 -8.418,8.43 94.179,94.17 8.418,-8.42" /><path
         id="path54"
         style="fill:#f4f5fa;fill-opacity:1;fill-rule:nonzero;stroke:none"
         d="m 928.086,1075.14 -94.18,-94.175 -4.152,4.137 94.191,94.188 4.141,-4.15" /><path
         id="path56"
         style="fill:#f4f5fa;fill-opacity:1;fill-rule:nonzero;stroke:none"
         d="m 941.824,1061.4 -94.179,-94.181 -4.149,4.144 94.18,94.187 4.148,-4.15" /><path
         id="path58"
         style="fill:#f4f5fa;fill-opacity:1;fill-rule:nonzero;stroke:none"
         d="m 955.566,1047.66 -94.179,-94.187 -4.153,4.152 94.18,94.185 4.152,-4.15" /><path
         id="path60"
         style="fill:#f4f5fa;fill-opacity:1;fill-rule:nonzero;stroke:none"
         d="m 969.305,1033.92 -94.18,-94.186 -4.148,4.149 94.179,94.187 4.149,-4.15" /><path
         id="path62"
         style="fill:#f4f5fa;fill-opacity:1;fill-rule:nonzero;stroke:none"
         d="m 1038.03,965.207 -94.182,-94.18 -4.153,4.153 94.185,94.183 4.15,-4.156" /><path
         id="path64"
         style="fill:#f4f5fa;fill-opacity:1;fill-rule:nonzero;stroke:none"
         d="m 983.836,1016.68 -94.18,-94.18 -8.426,8.422 94.18,94.188 8.426,-8.43" /><path
         id="path66"
         style="fill:#f4f5fa;fill-opacity:1;fill-rule:nonzero;stroke:none"
         d="m 995.438,1005.07 -94.188,-94.175 -4.152,4.136 94.191,94.199 4.149,-4.16" /><path
         id="path68"
         style="fill:#f4f5fa;fill-opacity:1;fill-rule:nonzero;stroke:none"
         d="m 1009.18,991.336 -94.18,-94.18 -4.152,4.137 94.182,94.187 4.15,-4.144" /><path
         id="path70"
         style="fill:#f4f5fa;fill-opacity:1;fill-rule:nonzero;stroke:none"
         d="m 1022.92,977.586 -94.182,-94.176 -4.14,4.141 94.182,94.179 4.14,-4.144" /><path
         id="path72"
         style="fill:#f4f5fa;fill-opacity:1;fill-rule:nonzero;stroke:none"
         d="m 1051.19,946.613 -94.17,-94.179 -8.438,8.421 94.178,94.184 8.43,-8.426" /><path
         id="path74"
         style="fill:#f4f5fa;fill-opacity:1;fill-rule:nonzero;stroke:none"
         d="m 1062.78,935.008 -94.159,-94.176 -4.141,4.152 94.17,94.168 4.13,-4.144" /><path
         id="path76"
         style="fill:#f4f5fa;fill-opacity:1;fill-rule:nonzero;stroke:none"
         d="m 1076.53,921.262 -94.167,-94.168 -4.14,4.148 94.147,94.176 4.16,-4.156" /><path
         id="path78"
         style="fill:#f4f5fa;fill-opacity:1;fill-rule:nonzero;stroke:none"
         d="m 1090.27,907.523 -94.168,-94.175 -4.141,4.144 94.169,94.172 4.14,-4.141" /></g></g></svg>
