<?xml version="1.0" encoding="utf-8"?>
<!-- Generator: Adobe Illustrator 21.0.2, SVG Export Plug-In . SVG Version: 6.00 Build 0)  -->
<svg version="1.1" id="Layer_1" xmlns="http://www.w3.org/2000/svg" xmlns:xlink="http://www.w3.org/1999/xlink" x="0px" y="0px"
	 viewBox="0 0 30 30" style="enable-background:new 0 0 30 30;" xml:space="preserve">
<style type="text/css">
	.st0{fill:#DF4B38;}
	.st1{enable-background:new    ;}
	.st2{fill:#FFFFFF;}
</style>
<circle id="Circle_Button" class="st0" cx="15" cy="15" r="15"/>
<g id="_" class="st1">
	<path class="st2" d="M11.1,10c0,0.3-0.2,0.6-0.5,0.8V20c0,0.1,0,0.1-0.1,0.2s-0.1,0.1-0.2,0.1H9.9c-0.1,0-0.1,0-0.2-0.1
		S9.7,20,9.7,20v-9.2c-0.3-0.2-0.5-0.5-0.5-0.8c0-0.3,0.1-0.5,0.3-0.7s0.4-0.3,0.7-0.3c0.3,0,0.5,0.1,0.7,0.3
		C11,9.5,11.1,9.7,11.1,10z M21.8,10.5V16c0,0.1,0,0.2-0.1,0.3s-0.2,0.1-0.3,0.2c-1,0.6-1.9,0.8-2.7,0.8c-0.3,0-0.6-0.1-0.9-0.2
		c-0.3-0.1-0.6-0.2-0.8-0.3s-0.5-0.2-0.8-0.3s-0.7-0.2-1-0.2c-0.9,0-2.1,0.4-3.4,1.1c-0.1,0-0.2,0.1-0.2,0.1c-0.1,0-0.2,0-0.3-0.1
		c-0.1-0.1-0.1-0.2-0.1-0.3v-5.4c0-0.2,0.1-0.3,0.2-0.4c0.1-0.1,0.3-0.2,0.6-0.3C13,10.3,14.1,10,15,10c0.5,0,1,0.1,1.5,0.2
		c0.5,0.1,1,0.4,1.6,0.6c0.2,0.1,0.4,0.1,0.6,0.1c0.3,0,0.5-0.1,0.9-0.2c0.3-0.1,0.6-0.2,0.8-0.3c0.2-0.1,0.4-0.2,0.6-0.3
		c0.2-0.1,0.3-0.2,0.4-0.2c0.1,0,0.2,0,0.3,0.1C21.7,10.2,21.8,10.3,21.8,10.5z"/>
</g>
</svg>
