<?xml version="1.0" encoding="utf-8"?>
<!-- Generator: Adobe Illustrator 21.0.2, SVG Export Plug-In . SVG Version: 6.00 Build 0)  -->
<svg version="1.1" id="Layer_1" xmlns="http://www.w3.org/2000/svg" xmlns:xlink="http://www.w3.org/1999/xlink" x="0px" y="0px"
	 viewBox="0 0 30 30" style="enable-background:new 0 0 30 30;" xml:space="preserve">
<style type="text/css">
	.st0{fill:#11B4E4;}
	.st1{enable-background:new    ;}
	.st2{fill:#FFFFFF;}
</style>
<circle id="Circle_Button" class="st0" cx="15" cy="15" r="15"/>
<g id="_" class="st1">
	<path class="st2" d="M20.6,17.8c0,0.6-0.2,1.1-0.6,1.5l-1.1,1.1c-0.4,0.4-0.9,0.6-1.5,0.6c-0.6,0-1.1-0.2-1.5-0.6l-1.5-1.5
		c-0.4-0.4-0.6-0.9-0.6-1.5c0-0.6,0.2-1.1,0.6-1.5l-0.6-0.6c-0.4,0.4-0.9,0.6-1.5,0.6c-0.6,0-1.1-0.2-1.5-0.6l-1.5-1.5
		c-0.4-0.4-0.6-0.9-0.6-1.5c0-0.6,0.2-1.1,0.6-1.5l1.1-1.1c0.4-0.4,0.9-0.6,1.5-0.6c0.6,0,1.1,0.2,1.5,0.6l1.5,1.5
		c0.4,0.4,0.6,0.9,0.6,1.5c0,0.6-0.2,1.1-0.6,1.5l0.6,0.6c0.4-0.4,0.9-0.6,1.5-0.6c0.6,0,1.1,0.2,1.5,0.6l1.5,1.5
		C20.4,16.7,20.6,17.2,20.6,17.8z M14.1,12.7c0-0.2-0.1-0.4-0.2-0.5l-1.5-1.5c-0.1-0.1-0.3-0.2-0.5-0.2c-0.2,0-0.4,0.1-0.5,0.2
		l-1.1,1.1c-0.1,0.1-0.2,0.3-0.2,0.5c0,0.2,0.1,0.4,0.2,0.5l1.5,1.5c0.1,0.1,0.3,0.2,0.5,0.2c0.2,0,0.4-0.1,0.5-0.2
		c0,0-0.1-0.1-0.1-0.1c-0.1-0.1-0.1-0.1-0.2-0.2c0,0-0.1-0.1-0.1-0.1s-0.1-0.1-0.1-0.2c0-0.1,0-0.1,0-0.2c0-0.2,0.1-0.4,0.2-0.5
		c0.1-0.1,0.3-0.2,0.5-0.2c0.1,0,0.1,0,0.2,0c0.1,0,0.1,0,0.2,0.1c0.1,0,0.1,0.1,0.1,0.1c0,0,0.1,0.1,0.2,0.2
		c0.1,0.1,0.1,0.1,0.1,0.1C14.1,13,14.1,12.9,14.1,12.7z M19.2,17.8c0-0.2-0.1-0.4-0.2-0.5l-1.5-1.5c-0.1-0.1-0.3-0.2-0.5-0.2
		c-0.2,0-0.4,0.1-0.5,0.2c0,0,0.1,0.1,0.1,0.1c0.1,0.1,0.1,0.1,0.2,0.2c0,0,0.1,0.1,0.1,0.1c0,0.1,0.1,0.1,0.1,0.2
		c0,0.1,0,0.1,0,0.2c0,0.2-0.1,0.4-0.2,0.5c-0.1,0.1-0.3,0.2-0.5,0.2c-0.1,0-0.1,0-0.2,0c-0.1,0-0.1,0-0.2-0.1s-0.1-0.1-0.1-0.1
		c0,0-0.1-0.1-0.2-0.2c-0.1-0.1-0.1-0.1-0.1-0.1c-0.2,0.1-0.2,0.3-0.2,0.5c0,0.2,0.1,0.4,0.2,0.5l1.5,1.5c0.1,0.1,0.3,0.2,0.5,0.2
		c0.2,0,0.4-0.1,0.5-0.2l1.1-1.1C19.2,18.1,19.2,18,19.2,17.8z"/>
</g>
</svg>
