<?xml version="1.0" encoding="UTF-8" standalone="no"?>
<svg
   xmlns:dc="http://purl.org/dc/elements/1.1/"
   xmlns:cc="http://creativecommons.org/ns#"
   xmlns:rdf="http://www.w3.org/1999/02/22-rdf-syntax-ns#"
   xmlns:svg="http://www.w3.org/2000/svg"
   xmlns="http://www.w3.org/2000/svg"
   viewBox="0 0 200 199.96001"
   height="199.96001"
   width="200"
   xml:space="preserve"
   id="svg2"
   version="1.1"><defs
     id="defs6" /><g
     transform="matrix(1.3333333,0,0,-1.3333333,0,199.96)"
     id="g10"><g
       transform="scale(0.1)"
       id="g12"><path
         id="path14"
         style="fill:#4eb9e8;fill-opacity:1;fill-rule:nonzero;stroke:none"
         d="M 1500,749.867 C 1500,335.73 1164.22,0 750,0 335.789,0 0,335.73 0,749.867 0,1164 335.789,1499.73 750,1499.73 c 414.22,0 750,-335.73 750,-749.863" /><path
         id="path16"
         style="fill:#f4f5fa;fill-opacity:1;fill-rule:nonzero;stroke:none"
         d="M 1071.94,311.262 H 376.766 V 1196.79 H 1071.94 V 311.262" /><path
         id="path18"
         style="fill:#ffffff;fill-opacity:1;fill-rule:nonzero;stroke:none"
         d="M 1123.23,311.262 H 428.055 V 1196.79 H 1123.23 V 311.262" /><path
         id="path20"
         style="fill:#696b6c;fill-opacity:1;fill-rule:nonzero;stroke:none"
         d="M 734.102,343.48 H 466.863 v 68.731 H 734.102 V 343.48" /><path
         id="path22"
         style="fill:#e6eaf3;fill-opacity:1;fill-rule:nonzero;stroke:none"
         d="M 1089.82,773.844 H 956.992 v 30.543 h 132.828 v -30.543" /><path
         id="path24"
         style="fill:#e6eaf3;fill-opacity:1;fill-rule:nonzero;stroke:none"
         d="M 1089.82,529.438 H 890.586 v 30.554 h 199.234 v -30.554" /><path
         id="path26"
         style="fill:#ffffff;fill-opacity:1;fill-rule:nonzero;stroke:none"
         d="M 1089.82,745.129 H 956.992 v 15.273 h 132.828 v -15.273" /><path
         id="path28"
         style="fill:#ffffff;fill-opacity:1;fill-rule:nonzero;stroke:none"
         d="m 1039.58,715.395 h -82.588 v 15.285 h 82.588 v -15.285" /><path
         id="path30"
         style="fill:#e6eaf3;fill-opacity:1;fill-rule:nonzero;stroke:none"
         d="M 611.641,804.387 H 466.863 v 15.519 h 144.778 v -15.519" /><path
         id="path32"
         style="fill:#e6eaf3;fill-opacity:1;fill-rule:nonzero;stroke:none"
         d="M 624.707,624.152 H 466.863 v 46.555 h 157.844 v -46.555" /><path
         id="path34"
         style="fill:#e6eaf3;fill-opacity:1;fill-rule:nonzero;stroke:none"
         d="m 1106.29,647.43 c 0,-15.246 -33.42,-27.614 -74.65,-27.614 -41.222,0 -74.648,12.368 -74.648,27.614 0,15.242 33.426,27.613 74.648,27.613 41.23,0 74.65,-12.371 74.65,-27.613" /><path
         id="path36"
         style="fill:#e6eaf3;fill-opacity:1;fill-rule:nonzero;stroke:none"
         d="m 596.563,780.48 h -129.7 v 14.61 h 129.7 v -14.61" /><path
         id="path38"
         style="fill:#ffffff;fill-opacity:1;fill-rule:nonzero;stroke:none"
         d="m 596.563,759.23 h -129.7 v 14.614 h 129.7 V 759.23" /><path
         id="path40"
         style="fill:#ffffff;fill-opacity:1;fill-rule:nonzero;stroke:none"
         d="m 596.563,737.984 h -129.7 v 14.602 h 129.7 v -14.602" /><path
         id="path42"
         style="fill:#ffffff;fill-opacity:1;fill-rule:nonzero;stroke:none"
         d="M 1088.26,504.313 H 958.563 v 14.617 h 129.697 v -14.617" /><path
         id="path44"
         style="fill:#ffffff;fill-opacity:1;fill-rule:nonzero;stroke:none"
         d="M 1088.26,483.07 H 958.563 v 14.61 h 129.697 v -14.61" /><path
         id="path46"
         style="fill:#ffffff;fill-opacity:1;fill-rule:nonzero;stroke:none"
         d="M 1088.26,461.809 H 958.563 v 14.613 h 129.697 v -14.613" /><path
         id="path48"
         style="fill:#ffffff;fill-opacity:1;fill-rule:nonzero;stroke:none"
         d="m 614.188,529.438 c 0,-37.766 -30.625,-68.407 -68.399,-68.407 -37.793,0 -68.418,30.641 -68.418,68.407 0,37.781 30.625,68.406 68.418,68.406 37.774,0 68.399,-30.625 68.399,-68.406" /><path
         id="path50"
         style="fill:#7f8699;fill-opacity:1;fill-rule:nonzero;stroke:none"
         d="m 1092.93,302.719 c -36.95,26.39 -88.58,46.019 -145.703,62.769 -76.497,22.352 -104.122,67.301 -104.122,113.461 0,19.141 0,76.485 0,76.485 H 684.48 c 0,0 0,-57.344 0,-76.485 0,-46.16 -27.656,-91.109 -104.167,-113.461 -57.09,-16.75 -108.711,-36.379 -145.684,-62.769" /><path
         id="path52"
         style="fill:#404041;fill-opacity:1;fill-rule:nonzero;stroke:none"
         d="m 644.93,737.523 c 0,0 -74.344,35.786 -87.383,110.633 -12.996,74.899 45.598,138.321 102.539,126.949 0,0 87.863,148.635 243.672,19.532 C 1060.07,865.047 910,761.938 882.684,737.523 H 644.93" /><path
         id="path54"
         style="fill:#7f8699;fill-opacity:1;fill-rule:nonzero;stroke:none"
         d="m 644.598,715.633 c 2.168,-22.785 -7.176,-42.36 -20.946,-43.664 -13.75,-1.34 -26.672,16.121 -28.839,38.918 -2.188,22.836 7.199,42.367 20.929,43.66 13.75,1.348 26.668,-16.078 28.856,-38.914" /><path
         id="path56"
         style="fill:#7f8699;fill-opacity:1;fill-rule:nonzero;stroke:none"
         d="m 883.016,715.633 c -2.188,-22.785 7.16,-42.36 20.929,-43.664 13.778,-1.34 26.668,16.121 28.817,38.918 2.238,22.836 -7.176,42.367 -20.907,43.66 -13.769,1.348 -26.671,-16.078 -28.839,-38.914" /><path
         id="path58"
         style="fill:#a0a4bf;fill-opacity:1;fill-rule:nonzero;stroke:none"
         d="M 623.855,918.723 V 638.816 c 0,-77.289 62.649,-139.957 139.934,-139.957 77.313,0 139.969,62.668 139.969,139.957 V 918.723 H 623.855" /><path
         id="path60"
         style="fill:#404041;fill-opacity:1;fill-rule:nonzero;stroke:none"
         d="m 672.578,934.426 c 0,0 0,-97.696 133.965,-109.055 69.754,-5.906 86.602,-30.574 97.215,-48.805 0,0 60.637,117.172 15.07,157.86 -45.598,40.679 -176.808,58.57 -246.25,0" /><path
         id="path62"
         style="fill:#404041;fill-opacity:1;fill-rule:nonzero;stroke:none"
         d="m 726.816,885.91 c 0,0 -67.589,-13.336 -102.961,-88.187 0,0 -57.519,65.113 -29.375,99.226 28.145,34.211 95.313,41.985 132.336,-11.039" /><path
         id="path64"
         style="fill:#2e2d2d;fill-opacity:1;fill-rule:nonzero;stroke:none"
         d="m 1092.93,302.719 c -36.95,26.39 -88.58,46.019 -145.703,62.769 -23.438,6.801 -42.168,15.774 -57.09,26.282 -16.614,-43.848 -66.895,-75.719 -126.348,-75.719 -59.445,0 -109.738,31.871 -126.367,75.719 -14.895,-10.508 -33.652,-19.481 -57.109,-26.282 -57.09,-16.75 -108.711,-36.379 -145.684,-62.769" /><path
         id="path66"
         style="fill:#4eb9e8;fill-opacity:1;fill-rule:nonzero;stroke:none"
         d="m 520.965,950.406 h 21.914 V 1065.52 H 520.965 V 950.406" /><path
         id="path68"
         style="fill:#4eb9e8;fill-opacity:1;fill-rule:nonzero;stroke:none"
         d="m 542.879,1098.72 h -21.914 v 22.6 h 21.914 v -22.6" /><path
         id="path70"
         style="fill:#4eb9e8;fill-opacity:1;fill-rule:nonzero;stroke:none"
         d="m 500.027,950.402 c -13.261,0.297 -22.675,3.008 -28.23,8.145 -5.559,5.133 -8.332,13.125 -8.332,23.984 v 138.789 l 21.523,2.55 V 985.832 c 0,-3.379 0.313,-6.156 0.93,-8.359 0.613,-2.203 1.621,-3.965 3.008,-5.282 1.387,-1.324 3.242,-2.304 5.554,-2.964 2.317,-0.668 5.168,-1.223 8.567,-1.657 l -3.02,-17.168" /><path
         id="path72"
         style="fill:#4eb9e8;fill-opacity:1;fill-rule:nonzero;stroke:none"
         d="m 617.773,1045.05 h -33.847 v -94.644 h -22.16 v 118.374 c 0,8.12 0.129,14.51 0.371,19.13 0.234,4.64 1.008,8.89 2.316,12.8 2.43,7.79 6.727,13.65 12.899,17.54 6.171,3.91 13.312,5.78 21.425,5.61 2.598,0 5.684,-0.24 9.258,-0.72 3.567,-0.49 7.949,-1.62 13.145,-3.4 v -17.25 c -2.754,0.97 -5.477,1.78 -8.153,2.42 -2.675,0.65 -5.644,0.98 -8.898,0.98 -3.242,0 -5.879,-0.41 -7.899,-1.22 -2.042,-0.81 -3.625,-1.63 -4.757,-2.42 -1.942,-1.46 -3.446,-3.21 -4.5,-5.23 -1.055,-2.03 -1.828,-4.13 -2.317,-6.32 -0.488,-2.18 -0.73,-4.45 -0.73,-6.8 v -6.69 -11.69 h 33.847 v -20.47" /><path
         id="path74"
         style="fill:#4eb9e8;fill-opacity:1;fill-rule:nonzero;stroke:none"
         d="m 682.91,1015.05 c 0,-3.24 -2.617,-5.87 -5.84,-5.87 -3.215,0 -5.832,2.63 -5.832,5.87 0,3.24 2.617,5.87 5.832,5.87 3.223,0 5.84,-2.63 5.84,-5.87" /><path
         id="path76"
         style="fill:#4eb9e8;fill-opacity:1;fill-rule:nonzero;stroke:none"
         d="m 715.906,1015.05 c 0,-3.24 -2.617,-5.87 -5.828,-5.87 -3.223,0 -5.832,2.63 -5.832,5.87 0,3.24 2.609,5.87 5.832,5.87 3.211,0 5.828,-2.63 5.828,-5.87" /><path
         id="path78"
         style="fill:#4eb9e8;fill-opacity:1;fill-rule:nonzero;stroke:none"
         d="m 656.973,1065.75 v 55.57 h -20.5 v -95.39 c 0,-4.88 -0.106,-9.77 -0.332,-14.65 -0.223,-4.88 -0.106,-9.55 0.332,-13.983 0.734,-7.098 2.57,-13.348 5.507,-18.738 2.942,-5.411 6.387,-10.11 10.364,-14.098 3.965,-4 8.621,-7.512 13.992,-10.543 5.363,-3.031 11.582,-4.848 18.633,-5.438 10.578,-0.886 19.687,0.333 27.336,3.661 7.636,3.332 13.965,7.656 18.965,12.984 4.246,4.582 7.714,9.762 10.351,15.531 2.559,5.567 4.063,10.992 4.551,18.215 l -20.617,0.981 c -0.762,-4.204 -2.051,-8.168 -3.887,-11.872 -1.98,-3.992 -4.551,-7.437 -7.703,-10.32 -3.164,-2.883 -6.809,-5.105 -10.918,-6.66 -4.113,-1.555 -8.594,-2.176 -13.449,-1.883 -9.11,0.738 -16.649,4.11 -22.598,10.098 -5.945,5.992 -9.297,13.426 -10.027,22.305 -0.442,5.47 -0.52,11.36 -0.227,17.64 0.293,6.29 0.442,19.44 0.442,25.95 h 68.64 l -0.984,20.64 h -67.871" /></g></g></svg>
