<svg width="150px" height="150px" viewBox="0 0 150 150" version="1.1" xmlns="http://www.w3.org/2000/svg" xmlns:xlink="http://www.w3.org/1999/xlink">
    <!-- Generator: Sketch 42 (36781) - http://www.bohemiancoding.com/sketch -->
    <desc>Created with Sketch.</desc>
    <defs>
        <polygon id="path-1" points="0 149.94 0 0.027 150 0.027 150 149.94"></polygon>
    </defs>
    <g id="Icon-Producer" stroke="none" stroke-width="1" fill="none" fill-rule="evenodd">
        <g id="Group-3">
            <mask id="mask-2" fill="white">
                <use xlink:href="#path-1"></use>
            </mask>
            <g id="Clip-2"></g>
            <path d="M150,75.013 C150,116.427 116.422,150 75,150 C33.579,150 0,116.427 0,75.013 C0,33.6 33.579,0.027 75,0.027 C116.422,0.027 150,33.6 150,75.013" id="Fill-1" fill="#28ABD2" mask="url(#mask-2)"></path>
        </g>
        <path d="M69.636,106.608 C59.873,106.608 50.895,101.282 46.205,92.711 L49.718,90.788 C53.705,98.077 61.337,102.604 69.636,102.604 C82.145,102.604 92.324,92.425 92.324,79.915 C92.324,74.147 90.158,68.649 86.224,64.436 L89.151,61.703 C93.779,66.661 96.328,73.129 96.328,79.915 C96.328,94.634 84.354,106.608 69.636,106.608" id="Fill-4" fill="#2D2E2C"></path>
        <path d="M63.663,76.295 L60.967,73.599 C60.542,73.174 60.541,72.484 60.967,72.058 L63.758,69.268 C64.184,68.842 64.872,68.843 65.298,69.268 L67.993,71.963 C68.418,72.389 68.419,73.078 67.993,73.503 L65.202,76.295 C64.776,76.719 64.087,76.718 63.663,76.295" id="Fill-5" fill="#FFFFFF"></path>
        <path d="M67.801,75.62 L61.64,69.46 C61.215,69.036 61.215,68.346 61.64,67.92 L99.305,30.255 C99.73,29.831 100.42,29.831 100.844,30.255 L107.004,36.416 C107.43,36.842 107.43,37.531 107.004,37.957 L69.341,75.62 C68.915,76.045 68.226,76.045 67.801,75.62" id="Fill-6" fill="#2D2E2C"></path>
        <path d="M71.265,72.155 L65.105,65.996 C63.83,64.719 63.829,62.652 65.105,61.376 L86.472,40.008 C87.748,38.733 89.816,38.734 91.092,40.008 L97.252,46.169 C98.527,47.445 98.527,49.512 97.252,50.79 L75.885,72.155 C74.609,73.432 72.541,73.431 71.265,72.155" id="Fill-7" fill="#FFFFFF"></path>
        <path d="M90.899,65.803 C88.508,68.194 84.63,68.194 82.236,65.803 C79.845,63.411 79.845,59.532 82.236,57.14 C84.63,54.75 88.508,54.75 90.899,57.14 C93.291,59.532 93.291,63.411 90.899,65.803" id="Fill-8" fill="#262724"></path>
        <path d="M67.512,93.133 L43.478,93.133 C43.035,93.133 42.677,92.775 42.677,92.332 L42.677,88.59 C42.677,88.147 43.035,87.789 43.478,87.789 L67.512,87.789 C67.954,87.789 68.312,88.147 68.312,88.59 L68.312,92.332 C68.312,92.775 67.954,93.133 67.512,93.133" id="Fill-9" fill="#FFFFFF"></path>
        <path d="M60.068,115.29 C60.068,109.174 65.027,104.216 71.144,104.216 C77.26,104.216 82.218,109.174 82.218,115.29 L60.068,115.29" id="Fill-10" fill="#FFFFFF"></path>
        <path d="M90.387,120.112 L51.933,120.112 C51.209,120.112 50.955,119.629 51.367,119.033 L54.468,114.547 C54.881,113.951 55.802,113.468 56.527,113.468 L85.136,113.468 C85.861,113.468 86.812,113.929 87.263,114.496 L90.886,119.082 C91.334,119.651 91.11,120.112 90.387,120.112" id="Fill-11" fill="#2D2E2C"></path>
    </g>
</svg>
