<svg width="150px" height="150px" viewBox="0 0 150 150" version="1.1" xmlns="http://www.w3.org/2000/svg" xmlns:xlink="http://www.w3.org/1999/xlink">
    <!-- Generator: Sketch 42 (36781) - http://www.bohemiancoding.com/sketch -->
    <desc>Created with Sketch.</desc>
    <defs>
        <polygon id="path-1" points="0 149.94 0 0.027 150 0.027 150 149.94"></polygon>
    </defs>
    <g id="Icon-Profile" stroke="none" stroke-width="1" fill="none" fill-rule="evenodd">
        <g id="Group-3">
            <mask id="mask-2" fill="white">
                <use xlink:href="#path-1"></use>
            </mask>
            <g id="Clip-2"></g>
            <path d="M150,75.013 C150,116.427 116.422,150 75,150 C33.579,150 0,116.427 0,75.013 C0,33.6 33.579,0.027 75,0.027 C116.422,0.027 150,33.6 150,75.013" id="Fill-1" fill="#28ABD2" mask="url(#mask-2)"></path>
        </g>
        <path d="M82.64,69.768 L74.265,79.738 C74.002,80.053 73.612,80.235 73.203,80.24 L73.188,80.24 C72.784,80.24 72.397,80.064 72.129,79.759 L67.605,74.58 C67.094,73.995 67.155,73.107 67.738,72.596 C68.323,72.084 69.211,72.146 69.722,72.729 L73.168,76.674 L80.487,67.96 C80.986,67.365 81.872,67.289 82.468,67.788 C83.062,68.286 83.139,69.173 82.64,69.768 Z M74.999,60.348 C67.998,60.348 62.323,66.023 62.323,73.024 C62.323,80.025 67.998,85.701 74.999,85.701 C82.002,85.701 87.677,80.025 87.677,73.024 C87.677,66.023 82.002,60.348 74.999,60.348 L74.999,60.348 Z" id="Fill-4" fill="#28ABD2"></path>
        <path d="M96.407,108.145 C87.48,105.536 84.257,100.291 84.257,94.904 L84.257,85.979 L65.746,85.979 L65.746,94.904 C65.746,100.291 62.52,105.536 53.59,108.145 C46.928,110.099 40.903,112.389 36.589,115.469 C47.242,123.616 60.555,128.465 75.001,128.465 C89.448,128.465 102.761,123.616 113.411,115.469 C109.099,112.389 103.075,110.099 96.407,108.145" id="Fill-5" fill="#F3F4F6"></path>
        <path d="M61.132,64.73 C61.132,64.73 52.455,60.553 50.933,51.819 C49.417,43.079 56.254,35.677 62.899,37.005 C62.899,37.005 73.153,19.658 91.336,34.725 C109.576,49.848 92.063,61.881 88.876,64.73 L61.132,64.73" id="Fill-6" fill="#3F403D"></path>
        <path d="M61.093,67.284 C61.346,69.943 60.255,72.227 58.647,72.38 C57.043,72.536 55.536,70.498 55.282,67.838 C55.027,65.173 56.123,62.894 57.724,62.743 C59.329,62.586 60.837,64.619 61.093,67.284" id="Fill-7" fill="#F3F4F6"></path>
        <path d="M88.915,67.284 C88.659,69.943 89.75,72.227 91.357,72.38 C92.965,72.536 94.47,70.498 94.72,67.838 C94.98,65.173 93.883,62.894 92.28,62.743 C90.673,62.586 89.168,64.619 88.915,67.284" id="Fill-8" fill="#F3F4F6"></path>
        <path d="M58.672,43.584 L58.672,76.249 C58.672,85.268 65.982,92.58 75.001,92.58 C84.023,92.58 91.336,85.268 91.336,76.249 L91.336,43.584 L58.672,43.584" id="Fill-9" fill="#FFFFFF"></path>
        <path d="M64.357,41.752 C64.357,41.752 64.357,53.153 79.991,54.478 C88.131,55.167 90.096,58.046 91.336,60.174 C91.336,60.174 98.412,46.5 93.094,41.752 C87.773,37.005 72.462,34.916 64.357,41.752" id="Fill-10" fill="#3F403D"></path>
        <path d="M70.686,47.413 C70.686,47.413 62.799,48.969 58.672,57.705 C58.672,57.705 51.959,50.106 55.243,46.125 C58.528,42.133 66.367,41.226 70.686,47.413" id="Fill-11" fill="#3F403D"></path>
        <path d="M96.407,108.145 C93.673,107.351 91.486,106.304 89.745,105.078 C87.807,110.195 81.938,113.913 75.001,113.913 C68.064,113.913 62.195,110.195 60.255,105.078 C58.516,106.304 56.327,107.351 53.59,108.145 C46.928,110.099 40.903,112.389 36.589,115.469 C47.242,123.616 60.555,128.465 75.001,128.465 C89.448,128.465 102.761,123.616 113.411,115.469 C109.099,112.389 103.075,110.099 96.407,108.145" id="Fill-12" fill="#2D2E2C"></path>
    </g>
</svg>
