<?xml version="1.0" encoding="UTF-8" standalone="no"?>
<svg
   xmlns:dc="http://purl.org/dc/elements/1.1/"
   xmlns:cc="http://creativecommons.org/ns#"
   xmlns:rdf="http://www.w3.org/1999/02/22-rdf-syntax-ns#"
   xmlns:svg="http://www.w3.org/2000/svg"
   xmlns="http://www.w3.org/2000/svg"
   viewBox="0 0 200 199.96001"
   height="199.96001"
   width="200"
   xml:space="preserve"
   id="svg2"
   version="1.1"><defs
     id="defs6" /><g
     transform="matrix(1.3333333,0,0,-1.3333333,0,199.96)"
     id="g10"><g
       transform="scale(0.1)"
       id="g12"><path
         id="path14"
         style="fill:#4eb9e8;fill-opacity:1;fill-rule:nonzero;stroke:none"
         d="M 1500,749.867 C 1500,335.73 1164.22,0 750,0 335.789,0 0,335.73 0,749.867 0,1164 335.789,1499.73 750,1499.73 c 414.22,0 750,-335.73 750,-749.863" /><path
         id="path16"
         style="fill:#f4f5fa;fill-opacity:1;fill-rule:nonzero;stroke:none"
         d="m 751.992,1114.4 c 201.758,0 365.308,-163.552 365.308,-365.314 0,-71.734 -20.68,-138.629 -56.4,-195.07 -17.95,-130.977 72.43,-186.266 72.43,-186.266 -182.658,-9.621 -222.959,52.039 -222.959,52.039 -47.91,-23.078 -101.641,-36.019 -158.379,-36.019 -201.758,0 -365.324,163.558 -365.324,365.316 0,201.762 163.566,365.314 365.324,365.314" /><path
         id="path18"
         style="fill:#2e2d2d;fill-opacity:1;fill-rule:nonzero;stroke:none"
         d="m 809.227,887.98 c 0,-5.984 -1.297,-11.609 -3.887,-16.863 -2.586,-5.265 -5.985,-9.875 -10.184,-13.84 -4.211,-3.964 -9.023,-7.117 -14.445,-9.461 -5.43,-2.351 -10.965,-3.523 -16.629,-3.523 -5.664,0 -11.086,1.172 -16.262,3.523 -5.175,2.344 -9.746,5.497 -13.711,9.461 -3.964,3.965 -7.156,8.575 -9.589,13.84 -2.422,5.254 -3.641,10.879 -3.641,16.863 0,5.989 1.219,11.653 3.641,16.993 2.433,5.343 5.703,10.031 9.835,14.078 4.122,4.043 8.77,7.242 13.954,9.59 5.175,2.343 10.597,3.515 16.261,3.515 5.821,0 11.407,-1.133 16.746,-3.398 5.344,-2.266 10.071,-5.422 14.2,-9.465 4.121,-4.047 7.441,-8.738 9.953,-14.074 2.508,-5.344 3.758,-11.09 3.758,-17.239 z M 795.156,819.051 765.059,567.355 h -74.278 l 30.098,251.696 h 74.277" /></g></g></svg>
