
<svg width="150px" height="150px" viewBox="0 0 150 150" version="1.1" xmlns="http://www.w3.org/2000/svg" xmlns:xlink="http://www.w3.org/1999/xlink">
    <!-- Generator: Sketch 42 (36781) - http://www.bohemiancoding.com/sketch -->
    <desc>Created with Sketch.</desc>
    <defs>
        <polygon id="path-1" points="0 149.94 0 0.027 150 0.027 150 149.94"></polygon>
    </defs>
    <g id="Icon-Reputation" stroke="none" stroke-width="1" fill="none" fill-rule="evenodd">
        <g id="Group-3">
            <mask id="mask-2" fill="white">
                <use xlink:href="#path-1"></use>
            </mask>
            <g id="Clip-2"></g>
            <path d="M150,75.013 C150,116.428 116.422,150 75,150 C33.579,150 0,116.428 0,75.013 C0,33.6 33.579,0.027 75,0.027 C116.422,0.027 150,33.6 150,75.013" id="Fill-1" fill="#28ABD2" mask="url(#mask-2)"></path>
        </g>
        <polygon id="Fill-4" fill="#2D2E2C" points="31.627 111.986 49.936 111.986 49.936 108.963 31.627 108.963"></polygon>
        <polygon id="Fill-5" fill="#2D2E2C" points="31.627 111.454 49.936 111.454 49.936 108.748 31.627 108.748"></polygon>
        <polygon id="Fill-6" fill="#40413E" points="34.007 111.986 35.703 111.986 35.703 111.454 34.007 111.454"></polygon>
        <polygon id="Fill-7" fill="#40413E" points="32.933 111.986 33.672 111.986 33.672 111.454 32.933 111.454"></polygon>
        <path d="M34.007,111.454 L35.703,111.454 L35.703,108.748 L34.007,108.748 L34.007,111.454 Z M32.933,111.454 L33.672,111.454 L33.672,108.748 L32.933,108.748 L32.933,111.454 Z" id="Fill-8" fill="#40413E"></path>
        <polygon id="Fill-9" fill="#1F201F" points="48.469 111.986 49.17 111.986 49.17 108.748 48.469 108.748"></polygon>
        <polygon id="Fill-10" fill="#1F201F" points="44.417 111.986 47.969 111.986 47.969 108.748 44.417 108.748"></polygon>
        <polygon id="Fill-11" fill="#2D2E2C" points="31.627 108.748 49.936 108.748 49.936 105.726 31.627 105.726"></polygon>
        <polygon id="Fill-12" fill="#2D2E2C" points="31.627 108.215 49.936 108.215 49.936 105.509 31.627 105.509"></polygon>
        <polygon id="Fill-13" fill="#40413E" points="34.007 108.748 35.703 108.748 35.703 108.215 34.007 108.215"></polygon>
        <polygon id="Fill-14" fill="#40413E" points="34.007 108.215 35.703 108.215 35.703 105.509 34.007 105.509"></polygon>
        <polygon id="Fill-15" fill="#40413E" points="32.933 108.748 33.672 108.748 33.672 108.215 32.933 108.215"></polygon>
        <polygon id="Fill-16" fill="#40413E" points="32.933 108.215 33.672 108.215 33.672 105.509 32.933 105.509"></polygon>
        <polygon id="Fill-17" fill="#1F201F" points="48.469 108.748 49.17 108.748 49.17 108.215 48.469 108.215"></polygon>
        <polygon id="Fill-18" fill="#1F201F" points="48.469 108.215 49.17 108.215 49.17 105.509 48.469 105.509"></polygon>
        <polygon id="Fill-19" fill="#1F201F" points="44.417 108.748 47.969 108.748 47.969 108.215 44.417 108.215"></polygon>
        <polygon id="Fill-20" fill="#1F201F" points="44.417 108.215 47.969 108.215 47.969 105.509 44.417 105.509"></polygon>
        <polygon id="Fill-21" fill="#2D2E2C" points="100.075 111.986 118.383 111.986 118.383 108.963 100.075 108.963"></polygon>
        <polygon id="Fill-22" fill="#2D2E2C" points="100.075 111.454 118.383 111.454 118.383 108.748 100.075 108.748"></polygon>
        <polygon id="Fill-23" fill="#40413E" points="102.454 111.986 104.15 111.986 104.15 108.748 102.454 108.748"></polygon>
        <polygon id="Fill-24" fill="#40413E" points="101.381 111.986 102.12 111.986 102.12 108.748 101.381 108.748"></polygon>
        <polygon id="Fill-25" fill="#1F201F" points="116.915 111.986 117.617 111.986 117.617 108.748 116.915 108.748"></polygon>
        <polygon id="Fill-26" fill="#1F201F" points="112.863 111.986 116.416 111.986 116.416 108.748 112.863 108.748"></polygon>
        <polygon id="Fill-27" fill="#2D2E2C" points="100.075 108.748 118.383 108.748 118.383 105.726 100.075 105.726"></polygon>
        <polygon id="Fill-28" fill="#2D2E2C" points="100.075 108.215 118.383 108.215 118.383 105.509 100.075 105.509"></polygon>
        <polygon id="Fill-29" fill="#40413E" points="102.454 108.748 104.15 108.748 104.15 108.215 102.454 108.215"></polygon>
        <polygon id="Fill-30" fill="#40413E" points="102.454 108.215 104.15 108.215 104.15 105.509 102.454 105.509"></polygon>
        <polygon id="Fill-31" fill="#40413E" points="101.381 108.748 102.12 108.748 102.12 108.215 101.381 108.215"></polygon>
        <polygon id="Fill-32" fill="#40413E" points="101.381 108.215 102.12 108.215 102.12 105.509 101.381 105.509"></polygon>
        <polygon id="Fill-33" fill="#1F201F" points="116.915 108.748 117.617 108.748 117.617 108.215 116.915 108.215"></polygon>
        <polygon id="Fill-34" fill="#1F201F" points="116.915 108.215 117.617 108.215 117.617 105.509 116.915 105.509"></polygon>
        <polygon id="Fill-35" fill="#1F201F" points="112.863 108.748 116.416 108.748 116.416 108.215 112.863 108.215"></polygon>
        <polygon id="Fill-36" fill="#1F201F" points="112.863 108.215 116.416 108.215 116.416 105.509 112.863 105.509"></polygon>
        <polygon id="Fill-37" fill="#2D2E2C" points="100.075 105.509 118.383 105.509 118.383 102.487 100.075 102.487"></polygon>
        <polygon id="Fill-38" fill="#2D2E2C" points="100.075 104.976 118.383 104.976 118.383 102.271 100.075 102.271"></polygon>
        <polygon id="Fill-39" fill="#40413E" points="102.454 105.509 104.15 105.509 104.15 104.976 102.454 104.976"></polygon>
        <polygon id="Fill-40" fill="#40413E" points="102.454 104.976 104.15 104.976 104.15 102.271 102.454 102.271"></polygon>
        <polygon id="Fill-41" fill="#40413E" points="101.381 105.509 102.12 105.509 102.12 104.976 101.381 104.976"></polygon>
        <polygon id="Fill-42" fill="#40413E" points="101.381 104.976 102.12 104.976 102.12 102.271 101.381 102.271"></polygon>
        <polygon id="Fill-43" fill="#1F201F" points="116.915 105.509 117.617 105.509 117.617 104.976 116.915 104.976"></polygon>
        <polygon id="Fill-44" fill="#1F201F" points="116.915 104.976 117.617 104.976 117.617 102.271 116.915 102.271"></polygon>
        <polygon id="Fill-45" fill="#1F201F" points="112.863 105.509 116.416 105.509 116.416 104.976 112.863 104.976"></polygon>
        <polygon id="Fill-46" fill="#1F201F" points="112.863 104.976 116.416 104.976 116.416 102.271 112.863 102.271"></polygon>
        <polygon id="Fill-47" fill="#2D2E2C" points="100.075 102.271 118.383 102.271 118.383 99.25 100.075 99.25"></polygon>
        <polygon id="Fill-48" fill="#2D2E2C" points="100.075 101.739 118.383 101.739 118.383 99.031 100.075 99.031"></polygon>
        <polygon id="Fill-49" fill="#40413E" points="102.454 102.271 104.15 102.271 104.15 101.739 102.454 101.739"></polygon>
        <polygon id="Fill-50" fill="#40413E" points="102.454 101.739 104.15 101.739 104.15 99.031 102.454 99.031"></polygon>
        <polygon id="Fill-51" fill="#40413E" points="101.381 102.271 102.12 102.271 102.12 101.739 101.381 101.739"></polygon>
        <polygon id="Fill-52" fill="#40413E" points="101.381 101.739 102.12 101.739 102.12 99.031 101.381 99.031"></polygon>
        <polygon id="Fill-53" fill="#1F201F" points="116.915 102.271 117.617 102.271 117.617 101.739 116.915 101.739"></polygon>
        <polygon id="Fill-54" fill="#1F201F" points="116.915 101.739 117.617 101.739 117.617 99.031 116.915 99.031"></polygon>
        <polygon id="Fill-55" fill="#1F201F" points="112.863 102.271 116.416 102.271 116.416 101.739 112.863 101.739"></polygon>
        <polygon id="Fill-56" fill="#1F201F" points="112.863 101.739 116.416 101.739 116.416 99.031 112.863 99.031"></polygon>
        <polygon id="Fill-57" fill="#2D2E2C" points="100.075 99.031 118.383 99.031 118.383 96.009 100.075 96.009"></polygon>
        <polygon id="Fill-58" fill="#2D2E2C" points="100.075 98.5 118.383 98.5 118.383 95.794 100.075 95.794"></polygon>
        <polygon id="Fill-59" fill="#40413E" points="102.454 99.031 104.15 99.031 104.15 98.5 102.454 98.5"></polygon>
        <polygon id="Fill-60" fill="#40413E" points="102.454 98.5 104.15 98.5 104.15 95.794 102.454 95.794"></polygon>
        <polygon id="Fill-61" fill="#40413E" points="101.381 99.031 102.12 99.031 102.12 98.5 101.381 98.5"></polygon>
        <polygon id="Fill-62" fill="#40413E" points="101.381 98.5 102.12 98.5 102.12 95.794 101.381 95.794"></polygon>
        <polygon id="Fill-63" fill="#1F201F" points="116.915 99.031 117.617 99.031 117.617 98.5 116.915 98.5"></polygon>
        <polygon id="Fill-64" fill="#1F201F" points="116.915 98.5 117.617 98.5 117.617 95.794 116.915 95.794"></polygon>
        <polygon id="Fill-65" fill="#1F201F" points="112.863 99.031 116.416 99.031 116.416 98.5 112.863 98.5"></polygon>
        <polygon id="Fill-66" fill="#1F201F" points="112.863 98.5 116.416 98.5 116.416 95.794 112.863 95.794"></polygon>
        <polygon id="Fill-67" fill="#2D2E2C" points="100.075 95.794 118.383 95.794 118.383 92.773 100.075 92.773"></polygon>
        <polygon id="Fill-68" fill="#2D2E2C" points="100.075 95.262 118.383 95.262 118.383 92.555 100.075 92.555"></polygon>
        <polygon id="Fill-69" fill="#40413E" points="102.454 95.794 104.15 95.794 104.15 95.262 102.454 95.262"></polygon>
        <polygon id="Fill-70" fill="#40413E" points="102.454 95.262 104.15 95.262 104.15 92.555 102.454 92.555"></polygon>
        <polygon id="Fill-71" fill="#40413E" points="101.381 95.794 102.12 95.794 102.12 95.262 101.381 95.262"></polygon>
        <polygon id="Fill-72" fill="#40413E" points="101.381 95.262 102.12 95.262 102.12 92.555 101.381 92.555"></polygon>
        <polygon id="Fill-73" fill="#1F201F" points="116.915 95.794 117.617 95.794 117.617 95.262 116.915 95.262"></polygon>
        <polygon id="Fill-74" fill="#1F201F" points="116.915 95.262 117.617 95.262 117.617 92.555 116.915 92.555"></polygon>
        <polygon id="Fill-75" fill="#1F201F" points="112.863 95.794 116.416 95.794 116.416 95.262 112.863 95.262"></polygon>
        <polygon id="Fill-76" fill="#1F201F" points="112.863 95.262 116.416 95.262 116.416 92.555 112.863 92.555"></polygon>
        <polygon id="Fill-77" fill="#2D2E2C" points="100.075 92.555 118.383 92.555 118.383 89.533 100.075 89.533"></polygon>
        <polygon id="Fill-78" fill="#2D2E2C" points="100.075 92.023 118.383 92.023 118.383 89.317 100.075 89.317"></polygon>
        <polygon id="Fill-79" fill="#40413E" points="102.454 92.555 104.15 92.555 104.15 92.023 102.454 92.023"></polygon>
        <polygon id="Fill-80" fill="#40413E" points="102.454 92.023 104.15 92.023 104.15 89.317 102.454 89.317"></polygon>
        <polygon id="Fill-81" fill="#40413E" points="101.381 92.555 102.12 92.555 102.12 92.023 101.381 92.023"></polygon>
        <polygon id="Fill-82" fill="#40413E" points="101.381 92.023 102.12 92.023 102.12 89.317 101.381 89.317"></polygon>
        <polygon id="Fill-83" fill="#1F201F" points="116.915 92.555 117.617 92.555 117.617 92.023 116.915 92.023"></polygon>
        <polygon id="Fill-84" fill="#1F201F" points="116.915 92.023 117.617 92.023 117.617 89.317 116.915 89.317"></polygon>
        <polygon id="Fill-85" fill="#1F201F" points="112.863 92.555 116.416 92.555 116.416 92.023 112.863 92.023"></polygon>
        <polygon id="Fill-86" fill="#1F201F" points="112.863 92.023 116.416 92.023 116.416 89.317 112.863 89.317"></polygon>
        <polygon id="Fill-87" fill="#2D2E2C" points="100.075 89.317 118.383 89.317 118.383 86.296 100.075 86.296"></polygon>
        <polygon id="Fill-88" fill="#2D2E2C" points="100.075 88.784 118.383 88.784 118.383 86.078 100.075 86.078"></polygon>
        <polygon id="Fill-89" fill="#40413E" points="102.454 89.317 104.15 89.317 104.15 88.785 102.454 88.785"></polygon>
        <polygon id="Fill-90" fill="#40413E" points="102.454 88.784 104.15 88.784 104.15 86.078 102.454 86.078"></polygon>
        <polygon id="Fill-91" fill="#40413E" points="101.381 89.317 102.12 89.317 102.12 88.785 101.381 88.785"></polygon>
        <polygon id="Fill-92" fill="#40413E" points="101.381 88.784 102.12 88.784 102.12 86.078 101.381 86.078"></polygon>
        <polygon id="Fill-93" fill="#1F201F" points="116.915 89.317 117.617 89.317 117.617 88.785 116.915 88.785"></polygon>
        <polygon id="Fill-94" fill="#1F201F" points="116.915 88.784 117.617 88.784 117.617 86.078 116.915 86.078"></polygon>
        <polygon id="Fill-95" fill="#1F201F" points="112.863 89.317 116.416 89.317 116.416 88.785 112.863 88.785"></polygon>
        <polygon id="Fill-96" fill="#1F201F" points="112.863 88.784 116.416 88.784 116.416 86.078 112.863 86.078"></polygon>
        <polygon id="Fill-97" fill="#2D2E2C" points="100.075 86.078 118.383 86.078 118.383 83.056 100.075 83.056"></polygon>
        <polygon id="Fill-98" fill="#2D2E2C" points="100.075 85.546 118.383 85.546 118.383 82.841 100.075 82.841"></polygon>
        <polygon id="Fill-99" fill="#40413E" points="102.454 86.078 104.15 86.078 104.15 85.546 102.454 85.546"></polygon>
        <polygon id="Fill-100" fill="#40413E" points="102.454 85.546 104.15 85.546 104.15 82.841 102.454 82.841"></polygon>
        <polygon id="Fill-101" fill="#40413E" points="101.381 86.078 102.12 86.078 102.12 85.546 101.381 85.546"></polygon>
        <polygon id="Fill-102" fill="#40413E" points="101.381 85.546 102.12 85.546 102.12 82.841 101.381 82.841"></polygon>
        <polygon id="Fill-103" fill="#1F201F" points="116.915 86.078 117.617 86.078 117.617 85.546 116.915 85.546"></polygon>
        <polygon id="Fill-104" fill="#1F201F" points="116.915 85.546 117.617 85.546 117.617 82.841 116.915 82.841"></polygon>
        <polygon id="Fill-105" fill="#1F201F" points="112.863 86.078 116.416 86.078 116.416 85.546 112.863 85.546"></polygon>
        <polygon id="Fill-106" fill="#1F201F" points="112.863 85.546 116.416 85.546 116.416 82.841 112.863 82.841"></polygon>
        <polygon id="Fill-107" fill="#2D2E2C" points="100.075 82.841 118.383 82.841 118.383 79.819 100.075 79.819"></polygon>
        <polygon id="Fill-108" fill="#2D2E2C" points="100.075 82.308 118.383 82.308 118.383 79.601 100.075 79.601"></polygon>
        <polygon id="Fill-109" fill="#40413E" points="102.454 82.841 104.15 82.841 104.15 82.308 102.454 82.308"></polygon>
        <polygon id="Fill-110" fill="#40413E" points="102.454 82.308 104.15 82.308 104.15 79.601 102.454 79.601"></polygon>
        <polygon id="Fill-111" fill="#40413E" points="101.381 82.841 102.12 82.841 102.12 82.308 101.381 82.308"></polygon>
        <polygon id="Fill-112" fill="#40413E" points="101.381 82.308 102.12 82.308 102.12 79.601 101.381 79.601"></polygon>
        <polygon id="Fill-113" fill="#1F201F" points="116.915 82.841 117.617 82.841 117.617 82.308 116.915 82.308"></polygon>
        <polygon id="Fill-114" fill="#1F201F" points="116.915 82.308 117.617 82.308 117.617 79.601 116.915 79.601"></polygon>
        <polygon id="Fill-115" fill="#1F201F" points="112.863 82.841 116.416 82.841 116.416 82.308 112.863 82.308"></polygon>
        <polygon id="Fill-116" fill="#1F201F" points="112.863 82.308 116.416 82.308 116.416 79.601 112.863 79.601"></polygon>
        <polygon id="Fill-117" fill="#2D2E2C" points="100.075 79.601 118.383 79.601 118.383 76.579 100.075 76.579"></polygon>
        <polygon id="Fill-118" fill="#2D2E2C" points="100.075 79.069 118.383 79.069 118.383 76.363 100.075 76.363"></polygon>
        <polygon id="Fill-119" fill="#40413E" points="102.454 79.601 104.15 79.601 104.15 79.069 102.454 79.069"></polygon>
        <polygon id="Fill-120" fill="#40413E" points="102.454 79.069 104.15 79.069 104.15 76.363 102.454 76.363"></polygon>
        <polygon id="Fill-121" fill="#40413E" points="101.381 79.601 102.12 79.601 102.12 79.069 101.381 79.069"></polygon>
        <polygon id="Fill-122" fill="#40413E" points="101.381 79.069 102.12 79.069 102.12 76.363 101.381 76.363"></polygon>
        <polygon id="Fill-123" fill="#1F201F" points="116.915 79.601 117.617 79.601 117.617 79.069 116.915 79.069"></polygon>
        <polygon id="Fill-124" fill="#1F201F" points="116.915 79.069 117.617 79.069 117.617 76.363 116.915 76.363"></polygon>
        <polygon id="Fill-125" fill="#1F201F" points="112.863 79.601 116.416 79.601 116.416 79.069 112.863 79.069"></polygon>
        <polygon id="Fill-126" fill="#1F201F" points="112.863 79.069 116.416 79.069 116.416 76.363 112.863 76.363"></polygon>
        <polygon id="Fill-127" fill="#2D2E2C" points="100.075 76.363 118.383 76.363 118.383 73.342 100.075 73.342"></polygon>
        <polygon id="Fill-128" fill="#2D2E2C" points="100.075 75.832 118.383 75.832 118.383 73.125 100.075 73.125"></polygon>
        <polygon id="Fill-129" fill="#40413E" points="102.454 76.364 104.15 76.364 104.15 75.832 102.454 75.832"></polygon>
        <polygon id="Fill-130" fill="#40413E" points="102.454 75.832 104.15 75.832 104.15 73.125 102.454 73.125"></polygon>
        <polygon id="Fill-131" fill="#40413E" points="101.381 76.364 102.12 76.364 102.12 75.832 101.381 75.832"></polygon>
        <polygon id="Fill-132" fill="#40413E" points="101.381 75.832 102.12 75.832 102.12 73.125 101.381 73.125"></polygon>
        <polygon id="Fill-133" fill="#1F201F" points="116.915 76.364 117.617 76.364 117.617 75.832 116.915 75.832"></polygon>
        <polygon id="Fill-134" fill="#1F201F" points="116.915 75.832 117.617 75.832 117.617 73.125 116.915 73.125"></polygon>
        <polygon id="Fill-135" fill="#1F201F" points="112.863 76.364 116.416 76.364 116.416 75.832 112.863 75.832"></polygon>
        <polygon id="Fill-136" fill="#1F201F" points="112.863 75.832 116.416 75.832 116.416 73.125 112.863 73.125"></polygon>
        <polygon id="Fill-137" fill="#2D2E2C" points="100.075 73.124 118.383 73.124 118.383 70.102 100.075 70.102"></polygon>
        <polygon id="Fill-138" fill="#2D2E2C" points="100.075 72.592 118.383 72.592 118.383 69.887 100.075 69.887"></polygon>
        <polygon id="Fill-139" fill="#40413E" points="102.454 73.124 104.15 73.124 104.15 72.592 102.454 72.592"></polygon>
        <polygon id="Fill-140" fill="#40413E" points="102.454 72.592 104.15 72.592 104.15 69.887 102.454 69.887"></polygon>
        <polygon id="Fill-141" fill="#40413E" points="101.381 73.124 102.12 73.124 102.12 72.592 101.381 72.592"></polygon>
        <polygon id="Fill-142" fill="#40413E" points="101.381 72.592 102.12 72.592 102.12 69.887 101.381 69.887"></polygon>
        <polygon id="Fill-143" fill="#1F201F" points="116.915 73.124 117.617 73.124 117.617 72.592 116.915 72.592"></polygon>
        <polygon id="Fill-144" fill="#1F201F" points="116.915 72.592 117.617 72.592 117.617 69.887 116.915 69.887"></polygon>
        <polygon id="Fill-145" fill="#1F201F" points="112.863 73.124 116.416 73.124 116.416 72.592 112.863 72.592"></polygon>
        <polygon id="Fill-146" fill="#1F201F" points="112.863 72.592 116.416 72.592 116.416 69.887 112.863 69.887"></polygon>
        <polygon id="Fill-147" fill="#2D2E2C" points="100.075 69.887 118.383 69.887 118.383 66.866 100.075 66.866"></polygon>
        <polygon id="Fill-148" fill="#2D2E2C" points="100.075 69.355 118.383 69.355 118.383 66.648 100.075 66.648"></polygon>
        <polygon id="Fill-149" fill="#40413E" points="102.454 69.888 104.15 69.888 104.15 69.355 102.454 69.355"></polygon>
        <polygon id="Fill-150" fill="#40413E" points="102.454 69.355 104.15 69.355 104.15 66.648 102.454 66.648"></polygon>
        <polygon id="Fill-151" fill="#40413E" points="101.381 69.888 102.12 69.888 102.12 69.355 101.381 69.355"></polygon>
        <polygon id="Fill-152" fill="#40413E" points="101.381 69.355 102.12 69.355 102.12 66.648 101.381 66.648"></polygon>
        <polygon id="Fill-153" fill="#1F201F" points="116.915 69.888 117.617 69.888 117.617 69.355 116.915 69.355"></polygon>
        <polygon id="Fill-154" fill="#1F201F" points="116.915 69.355 117.617 69.355 117.617 66.648 116.915 66.648"></polygon>
        <polygon id="Fill-155" fill="#1F201F" points="112.863 69.888 116.416 69.888 116.416 69.355 112.863 69.355"></polygon>
        <polygon id="Fill-156" fill="#1F201F" points="112.863 69.355 116.416 69.355 116.416 66.648 112.863 66.648"></polygon>
        <polygon id="Fill-157" fill="#2D2E2C" points="54.443 111.986 72.753 111.986 72.753 108.963 54.443 108.963"></polygon>
        <polygon id="Fill-158" fill="#2D2E2C" points="54.443 111.454 72.753 111.454 72.753 108.748 54.443 108.748"></polygon>
        <polygon id="Fill-159" fill="#40413E" points="56.822 111.986 58.516 111.986 58.516 108.748 56.822 108.748"></polygon>
        <polygon id="Fill-160" fill="#40413E" points="55.747 111.986 56.489 111.986 56.489 108.748 55.747 108.748"></polygon>
        <polygon id="Fill-161" fill="#1F201F" points="71.286 111.986 71.986 111.986 71.986 108.748 71.286 108.748"></polygon>
        <polygon id="Fill-162" fill="#1F201F" points="67.232 111.986 70.785 111.986 70.785 108.748 67.232 108.748"></polygon>
        <polygon id="Fill-163" fill="#2D2E2C" points="54.443 108.748 72.753 108.748 72.753 105.726 54.443 105.726"></polygon>
        <polygon id="Fill-164" fill="#2D2E2C" points="54.443 108.215 72.753 108.215 72.753 105.509 54.443 105.509"></polygon>
        <polygon id="Fill-165" fill="#40413E" points="56.822 108.748 58.516 108.748 58.516 108.215 56.822 108.215"></polygon>
        <polygon id="Fill-166" fill="#40413E" points="56.822 108.215 58.516 108.215 58.516 105.509 56.822 105.509"></polygon>
        <polygon id="Fill-167" fill="#40413E" points="55.747 108.748 56.489 108.748 56.489 108.215 55.747 108.215"></polygon>
        <polygon id="Fill-168" fill="#40413E" points="55.747 108.215 56.489 108.215 56.489 105.509 55.747 105.509"></polygon>
        <polygon id="Fill-169" fill="#1F201F" points="71.286 108.748 71.986 108.748 71.986 108.215 71.286 108.215"></polygon>
        <polygon id="Fill-170" fill="#1F201F" points="71.286 108.215 71.986 108.215 71.986 105.509 71.286 105.509"></polygon>
        <polygon id="Fill-171" fill="#1F201F" points="67.232 108.748 70.785 108.748 70.785 108.215 67.232 108.215"></polygon>
        <polygon id="Fill-172" fill="#1F201F" points="67.232 108.215 70.785 108.215 70.785 105.509 67.232 105.509"></polygon>
        <polygon id="Fill-173" fill="#2D2E2C" points="54.443 105.509 72.753 105.509 72.753 102.488 54.443 102.488"></polygon>
        <polygon id="Fill-174" fill="#2D2E2C" points="54.443 104.979 72.753 104.979 72.753 102.271 54.443 102.271"></polygon>
        <polygon id="Fill-175" fill="#40413E" points="56.822 105.509 58.516 105.509 58.516 104.979 56.822 104.979"></polygon>
        <polygon id="Fill-176" fill="#40413E" points="56.822 104.979 58.516 104.979 58.516 102.271 56.822 102.271"></polygon>
        <polygon id="Fill-177" fill="#40413E" points="55.747 105.509 56.489 105.509 56.489 104.979 55.747 104.979"></polygon>
        <polygon id="Fill-178" fill="#40413E" points="55.747 104.979 56.489 104.979 56.489 102.271 55.747 102.271"></polygon>
        <polygon id="Fill-179" fill="#1F201F" points="71.286 105.509 71.986 105.509 71.986 104.979 71.286 104.979"></polygon>
        <polygon id="Fill-180" fill="#1F201F" points="71.286 104.979 71.986 104.979 71.986 102.271 71.286 102.271"></polygon>
        <polygon id="Fill-181" fill="#1F201F" points="67.232 105.509 70.785 105.509 70.785 104.979 67.232 104.979"></polygon>
        <polygon id="Fill-182" fill="#1F201F" points="67.232 104.979 70.785 104.979 70.785 102.271 67.232 102.271"></polygon>
        <polygon id="Fill-183" fill="#2D2E2C" points="54.443 102.271 72.753 102.271 72.753 99.25 54.443 99.25"></polygon>
        <polygon id="Fill-184" fill="#2D2E2C" points="54.443 101.74 72.753 101.74 72.753 99.033 54.443 99.033"></polygon>
        <polygon id="Fill-185" fill="#40413E" points="56.822 102.271 58.516 102.271 58.516 101.74 56.822 101.74"></polygon>
        <polygon id="Fill-186" fill="#40413E" points="56.822 101.74 58.516 101.74 58.516 99.033 56.822 99.033"></polygon>
        <polygon id="Fill-187" fill="#40413E" points="55.747 102.271 56.489 102.271 56.489 101.74 55.747 101.74"></polygon>
        <polygon id="Fill-188" fill="#40413E" points="55.747 101.74 56.489 101.74 56.489 99.033 55.747 99.033"></polygon>
        <polygon id="Fill-189" fill="#1F201F" points="71.286 102.271 71.986 102.271 71.986 101.74 71.286 101.74"></polygon>
        <polygon id="Fill-190" fill="#1F201F" points="71.286 101.74 71.986 101.74 71.986 99.033 71.286 99.033"></polygon>
        <polygon id="Fill-191" fill="#1F201F" points="67.232 102.271 70.785 102.271 70.785 101.74 67.232 101.74"></polygon>
        <polygon id="Fill-192" fill="#1F201F" points="67.232 101.74 70.785 101.74 70.785 99.033 67.232 99.033"></polygon>
        <polygon id="Fill-193" fill="#2D2E2C" points="54.443 99.033 72.753 99.033 72.753 96.012 54.443 96.012"></polygon>
        <polygon id="Fill-194" fill="#2D2E2C" points="54.443 98.503 72.753 98.503 72.753 95.796 54.443 95.796"></polygon>
        <polygon id="Fill-195" fill="#40413E" points="56.822 99.033 58.516 99.033 58.516 98.502 56.822 98.502"></polygon>
        <polygon id="Fill-196" fill="#40413E" points="56.822 98.503 58.516 98.503 58.516 95.796 56.822 95.796"></polygon>
        <polygon id="Fill-197" fill="#40413E" points="55.747 99.033 56.489 99.033 56.489 98.502 55.747 98.502"></polygon>
        <polygon id="Fill-198" fill="#40413E" points="55.747 98.503 56.489 98.503 56.489 95.796 55.747 95.796"></polygon>
        <polygon id="Fill-199" fill="#1F201F" points="71.286 99.033 71.986 99.033 71.986 98.502 71.286 98.502"></polygon>
        <polygon id="Fill-200" fill="#1F201F" points="71.286 98.503 71.986 98.503 71.986 95.796 71.286 95.796"></polygon>
        <polygon id="Fill-201" fill="#1F201F" points="67.232 99.033 70.785 99.033 70.785 98.502 67.232 98.502"></polygon>
        <polygon id="Fill-202" fill="#1F201F" points="67.232 98.503 70.785 98.503 70.785 95.796 67.232 95.796"></polygon>
        <polygon id="Fill-203" fill="#2D2E2C" points="54.443 95.795 72.753 95.795 72.753 92.775 54.443 92.775"></polygon>
        <polygon id="Fill-204" fill="#2D2E2C" points="54.443 95.264 72.753 95.264 72.753 92.558 54.443 92.558"></polygon>
        <polygon id="Fill-205" fill="#40413E" points="56.822 95.796 58.516 95.796 58.516 95.264 56.822 95.264"></polygon>
        <polygon id="Fill-206" fill="#40413E" points="56.822 95.264 58.516 95.264 58.516 92.558 56.822 92.558"></polygon>
        <polygon id="Fill-207" fill="#40413E" points="55.747 95.796 56.489 95.796 56.489 95.264 55.747 95.264"></polygon>
        <polygon id="Fill-208" fill="#40413E" points="55.747 95.264 56.489 95.264 56.489 92.558 55.747 92.558"></polygon>
        <polygon id="Fill-209" fill="#1F201F" points="71.286 95.796 71.986 95.796 71.986 95.264 71.286 95.264"></polygon>
        <polygon id="Fill-210" fill="#1F201F" points="71.286 95.264 71.986 95.264 71.986 92.558 71.286 92.558"></polygon>
        <polygon id="Fill-211" fill="#1F201F" points="67.232 95.796 70.785 95.796 70.785 95.264 67.232 95.264"></polygon>
        <polygon id="Fill-212" fill="#1F201F" points="67.232 95.264 70.785 95.264 70.785 92.558 67.232 92.558"></polygon>
        <polygon id="Fill-213" fill="#2D2E2C" points="77.26 111.986 95.568 111.986 95.568 108.963 77.26 108.963"></polygon>
        <polygon id="Fill-214" fill="#2D2E2C" points="77.26 111.454 95.568 111.454 95.568 108.748 77.26 108.748"></polygon>
        <polygon id="Fill-215" fill="#40413E" points="79.64 111.986 81.335 111.986 81.335 108.748 79.64 108.748"></polygon>
        <polygon id="Fill-216" fill="#40413E" points="78.564 111.986 79.303 111.986 79.303 108.748 78.564 108.748"></polygon>
        <polygon id="Fill-217" fill="#1F201F" points="94.101 111.986 94.801 111.986 94.801 108.748 94.101 108.748"></polygon>
        <polygon id="Fill-218" fill="#1F201F" points="90.049 111.986 93.6 111.986 93.6 108.748 90.049 108.748"></polygon>
        <polygon id="Fill-219" fill="#2D2E2C" points="77.26 108.748 95.568 108.748 95.568 105.726 77.26 105.726"></polygon>
        <polygon id="Fill-220" fill="#2D2E2C" points="77.26 108.215 95.568 108.215 95.568 105.509 77.26 105.509"></polygon>
        <polygon id="Fill-221" fill="#40413E" points="79.64 108.748 81.335 108.748 81.335 108.215 79.64 108.215"></polygon>
        <polygon id="Fill-222" fill="#40413E" points="79.64 108.215 81.335 108.215 81.335 105.509 79.64 105.509"></polygon>
        <polygon id="Fill-223" fill="#40413E" points="78.564 108.748 79.303 108.748 79.303 108.215 78.564 108.215"></polygon>
        <polygon id="Fill-224" fill="#40413E" points="78.564 108.215 79.303 108.215 79.303 105.509 78.564 105.509"></polygon>
        <polygon id="Fill-225" fill="#1F201F" points="94.101 108.748 94.801 108.748 94.801 108.215 94.101 108.215"></polygon>
        <polygon id="Fill-226" fill="#1F201F" points="94.101 108.215 94.801 108.215 94.801 105.509 94.101 105.509"></polygon>
        <polygon id="Fill-227" fill="#1F201F" points="90.049 108.748 93.6 108.748 93.6 108.215 90.049 108.215"></polygon>
        <polygon id="Fill-228" fill="#1F201F" points="90.049 108.215 93.6 108.215 93.6 105.509 90.049 105.509"></polygon>
        <polygon id="Fill-229" fill="#2D2E2C" points="77.26 105.509 95.568 105.509 95.568 102.488 77.26 102.488"></polygon>
        <polygon id="Fill-230" fill="#2D2E2C" points="77.26 104.979 95.568 104.979 95.568 102.271 77.26 102.271"></polygon>
        <polygon id="Fill-231" fill="#40413E" points="79.64 105.509 81.335 105.509 81.335 104.979 79.64 104.979"></polygon>
        <polygon id="Fill-232" fill="#40413E" points="79.64 104.979 81.335 104.979 81.335 102.271 79.64 102.271"></polygon>
        <polygon id="Fill-233" fill="#40413E" points="78.564 105.509 79.303 105.509 79.303 104.979 78.564 104.979"></polygon>
        <polygon id="Fill-234" fill="#40413E" points="78.564 104.979 79.303 104.979 79.303 102.271 78.564 102.271"></polygon>
        <polygon id="Fill-235" fill="#1F201F" points="94.101 105.509 94.801 105.509 94.801 104.979 94.101 104.979"></polygon>
        <polygon id="Fill-236" fill="#1F201F" points="94.101 104.979 94.801 104.979 94.801 102.271 94.101 102.271"></polygon>
        <polygon id="Fill-237" fill="#1F201F" points="90.049 105.509 93.6 105.509 93.6 104.979 90.049 104.979"></polygon>
        <polygon id="Fill-238" fill="#1F201F" points="90.049 104.979 93.6 104.979 93.6 102.271 90.049 102.271"></polygon>
        <polygon id="Fill-239" fill="#2D2E2C" points="77.26 102.271 95.568 102.271 95.568 99.25 77.26 99.25"></polygon>
        <polygon id="Fill-240" fill="#2D2E2C" points="77.26 101.74 95.568 101.74 95.568 99.033 77.26 99.033"></polygon>
        <polygon id="Fill-241" fill="#40413E" points="79.64 102.271 81.335 102.271 81.335 101.74 79.64 101.74"></polygon>
        <polygon id="Fill-242" fill="#40413E" points="79.64 101.74 81.335 101.74 81.335 99.033 79.64 99.033"></polygon>
        <polygon id="Fill-243" fill="#40413E" points="78.564 102.271 79.303 102.271 79.303 101.74 78.564 101.74"></polygon>
        <polygon id="Fill-244" fill="#40413E" points="78.564 101.74 79.303 101.74 79.303 99.033 78.564 99.033"></polygon>
        <polygon id="Fill-245" fill="#1F201F" points="94.101 102.271 94.801 102.271 94.801 101.74 94.101 101.74"></polygon>
        <polygon id="Fill-246" fill="#1F201F" points="94.101 101.74 94.801 101.74 94.801 99.033 94.101 99.033"></polygon>
        <polygon id="Fill-247" fill="#1F201F" points="90.049 102.271 93.6 102.271 93.6 101.74 90.049 101.74"></polygon>
        <polygon id="Fill-248" fill="#1F201F" points="90.049 101.74 93.6 101.74 93.6 99.033 90.049 99.033"></polygon>
        <polygon id="Fill-249" fill="#2D2E2C" points="77.26 99.033 95.568 99.033 95.568 96.012 77.26 96.012"></polygon>
        <polygon id="Fill-250" fill="#2D2E2C" points="77.26 98.503 95.568 98.503 95.568 95.796 77.26 95.796"></polygon>
        <polygon id="Fill-251" fill="#40413E" points="79.64 99.033 81.335 99.033 81.335 98.502 79.64 98.502"></polygon>
        <polygon id="Fill-252" fill="#40413E" points="79.64 98.503 81.335 98.503 81.335 95.796 79.64 95.796"></polygon>
        <polygon id="Fill-253" fill="#40413E" points="78.564 99.033 79.303 99.033 79.303 98.502 78.564 98.502"></polygon>
        <polygon id="Fill-254" fill="#40413E" points="78.564 98.503 79.303 98.503 79.303 95.796 78.564 95.796"></polygon>
        <polygon id="Fill-255" fill="#1F201F" points="94.101 99.033 94.801 99.033 94.801 98.502 94.101 98.502"></polygon>
        <polygon id="Fill-256" fill="#1F201F" points="94.101 98.503 94.801 98.503 94.801 95.796 94.101 95.796"></polygon>
        <polygon id="Fill-257" fill="#1F201F" points="90.049 99.033 93.6 99.033 93.6 98.502 90.049 98.502"></polygon>
        <polygon id="Fill-258" fill="#1F201F" points="90.049 98.503 93.6 98.503 93.6 95.796 90.049 95.796"></polygon>
        <polygon id="Fill-259" fill="#2D2E2C" points="77.26 95.795 95.568 95.795 95.568 92.775 77.26 92.775"></polygon>
        <polygon id="Fill-260" fill="#2D2E2C" points="77.26 95.264 95.568 95.264 95.568 92.558 77.26 92.558"></polygon>
        <polygon id="Fill-261" fill="#40413E" points="79.64 95.796 81.335 95.796 81.335 95.264 79.64 95.264"></polygon>
        <polygon id="Fill-262" fill="#40413E" points="79.64 95.264 81.335 95.264 81.335 92.558 79.64 92.558"></polygon>
        <polygon id="Fill-263" fill="#40413E" points="78.564 95.796 79.303 95.796 79.303 95.264 78.564 95.264"></polygon>
        <polygon id="Fill-264" fill="#40413E" points="78.564 95.264 79.303 95.264 79.303 92.558 78.564 92.558"></polygon>
        <polygon id="Fill-265" fill="#1F201F" points="94.101 95.796 94.801 95.796 94.801 95.264 94.101 95.264"></polygon>
        <polygon id="Fill-266" fill="#1F201F" points="94.101 95.264 94.801 95.264 94.801 92.558 94.101 92.558"></polygon>
        <polygon id="Fill-267" fill="#1F201F" points="90.049 95.796 93.6 95.796 93.6 95.264 90.049 95.264"></polygon>
        <polygon id="Fill-268" fill="#1F201F" points="90.049 95.264 93.6 95.264 93.6 92.558 90.049 92.558"></polygon>
        <polygon id="Fill-269" fill="#2D2E2C" points="77.26 92.558 95.568 92.558 95.568 89.537 77.26 89.537"></polygon>
        <polygon id="Fill-270" fill="#2D2E2C" points="77.26 92.027 95.568 92.027 95.568 89.32 77.26 89.32"></polygon>
        <polygon id="Fill-271" fill="#40413E" points="79.64 92.558 81.335 92.558 81.335 92.027 79.64 92.027"></polygon>
        <polygon id="Fill-272" fill="#40413E" points="79.64 92.027 81.335 92.027 81.335 89.32 79.64 89.32"></polygon>
        <polygon id="Fill-273" fill="#40413E" points="78.564 92.558 79.303 92.558 79.303 92.027 78.564 92.027"></polygon>
        <polygon id="Fill-274" fill="#40413E" points="78.564 92.027 79.303 92.027 79.303 89.32 78.564 89.32"></polygon>
        <polygon id="Fill-275" fill="#1F201F" points="94.101 92.558 94.801 92.558 94.801 92.027 94.101 92.027"></polygon>
        <polygon id="Fill-276" fill="#1F201F" points="94.101 92.027 94.801 92.027 94.801 89.32 94.101 89.32"></polygon>
        <polygon id="Fill-277" fill="#1F201F" points="90.049 92.558 93.6 92.558 93.6 92.027 90.049 92.027"></polygon>
        <polygon id="Fill-278" fill="#1F201F" points="90.049 92.027 93.6 92.027 93.6 89.32 90.049 89.32"></polygon>
        <polygon id="Fill-279" fill="#2D2E2C" points="77.26 89.32 95.568 89.32 95.568 86.298 77.26 86.298"></polygon>
        <polygon id="Fill-280" fill="#2D2E2C" points="77.26 88.789 95.568 88.789 95.568 86.083 77.26 86.083"></polygon>
        <polygon id="Fill-281" fill="#40413E" points="79.64 89.32 81.335 89.32 81.335 88.788 79.64 88.788"></polygon>
        <polygon id="Fill-282" fill="#40413E" points="79.64 88.789 81.335 88.789 81.335 86.083 79.64 86.083"></polygon>
        <polygon id="Fill-283" fill="#40413E" points="78.564 89.32 79.303 89.32 79.303 88.788 78.564 88.788"></polygon>
        <polygon id="Fill-284" fill="#40413E" points="78.564 88.789 79.303 88.789 79.303 86.083 78.564 86.083"></polygon>
        <polygon id="Fill-285" fill="#1F201F" points="94.101 89.32 94.801 89.32 94.801 88.788 94.101 88.788"></polygon>
        <polygon id="Fill-286" fill="#1F201F" points="94.101 88.789 94.801 88.789 94.801 86.083 94.101 86.083"></polygon>
        <polygon id="Fill-287" fill="#1F201F" points="90.049 89.32 93.6 89.32 93.6 88.788 90.049 88.788"></polygon>
        <polygon id="Fill-288" fill="#1F201F" points="90.049 88.789 93.6 88.789 93.6 86.083 90.049 86.083"></polygon>
        <polygon id="Fill-289" fill="#2D2E2C" points="77.26 86.083 95.568 86.083 95.568 83.06 77.26 83.06"></polygon>
        <polygon id="Fill-290" fill="#2D2E2C" points="77.26 85.55 95.568 85.55 95.568 82.845 77.26 82.845"></polygon>
        <polygon id="Fill-291" fill="#40413E" points="79.64 86.083 81.335 86.083 81.335 85.55 79.64 85.55"></polygon>
        <polygon id="Fill-292" fill="#40413E" points="79.64 85.55 81.335 85.55 81.335 82.845 79.64 82.845"></polygon>
        <polygon id="Fill-293" fill="#40413E" points="78.564 86.083 79.303 86.083 79.303 85.55 78.564 85.55"></polygon>
        <polygon id="Fill-294" fill="#40413E" points="78.564 85.55 79.303 85.55 79.303 82.845 78.564 82.845"></polygon>
        <polygon id="Fill-295" fill="#1F201F" points="94.101 86.083 94.801 86.083 94.801 85.55 94.101 85.55"></polygon>
        <polygon id="Fill-296" fill="#1F201F" points="94.101 85.55 94.801 85.55 94.801 82.845 94.101 82.845"></polygon>
        <polygon id="Fill-297" fill="#1F201F" points="90.049 86.083 93.6 86.083 93.6 85.55 90.049 85.55"></polygon>
        <polygon id="Fill-298" fill="#1F201F" points="90.049 85.55 93.6 85.55 93.6 82.845 90.049 82.845"></polygon>
        <polygon id="Fill-299" fill="#2D2E2C" points="77.26 82.845 95.568 82.845 95.568 79.822 77.26 79.822"></polygon>
        <polygon id="Fill-300" fill="#2D2E2C" points="77.26 82.313 95.568 82.313 95.568 79.607 77.26 79.607"></polygon>
        <polygon id="Fill-301" fill="#40413E" points="79.64 82.846 81.335 82.846 81.335 82.313 79.64 82.313"></polygon>
        <polygon id="Fill-302" fill="#40413E" points="79.64 82.313 81.335 82.313 81.335 79.607 79.64 79.607"></polygon>
        <polygon id="Fill-303" fill="#40413E" points="78.564 82.846 79.303 82.846 79.303 82.313 78.564 82.313"></polygon>
        <polygon id="Fill-304" fill="#40413E" points="78.564 82.313 79.303 82.313 79.303 79.607 78.564 79.607"></polygon>
        <polygon id="Fill-305" fill="#1F201F" points="94.101 82.846 94.801 82.846 94.801 82.313 94.101 82.313"></polygon>
        <polygon id="Fill-306" fill="#1F201F" points="94.101 82.313 94.801 82.313 94.801 79.607 94.101 79.607"></polygon>
        <polygon id="Fill-307" fill="#1F201F" points="90.049 82.846 93.6 82.846 93.6 82.313 90.049 82.313"></polygon>
        <polygon id="Fill-308" fill="#1F201F" points="90.049 82.313 93.6 82.313 93.6 79.607 90.049 79.607"></polygon>
        <path d="M31.625,95.247 C30.601,95.247 29.724,94.516 29.536,93.509 C29.323,92.354 30.087,91.242 31.239,91.029 C49.298,87.675 68.863,78.859 86.332,66.206 C97.465,58.143 107.201,49.009 115.268,39.06 C115.676,38.559 116.278,38.273 116.923,38.273 C117.408,38.273 117.884,38.442 118.262,38.748 C118.702,39.106 118.977,39.614 119.036,40.179 C119.096,40.744 118.931,41.299 118.573,41.739 C110.269,51.979 100.262,61.37 88.827,69.651 C70.857,82.667 50.682,91.744 32.016,95.211 C31.885,95.235 31.754,95.247 31.625,95.247" id="Fill-309" fill="#FFFFFF"></path>
        <path d="M118.371,56.424 C117.28,56.424 116.372,55.604 116.258,54.518 L115.026,42.736 L103.246,43.967 L103.023,43.978 C101.932,43.978 101.023,43.158 100.909,42.072 C100.85,41.507 101.015,40.952 101.372,40.511 C101.73,40.07 102.239,39.794 102.805,39.736 L118.815,38.063 L120.488,54.075 C120.609,55.242 119.76,56.291 118.594,56.413 L118.371,56.424" id="Fill-310" fill="#FFFFFF"></path>
    </g>
</svg>
