<svg width="150px" height="150px" viewBox="0 0 150 150" version="1.1" xmlns="http://www.w3.org/2000/svg" xmlns:xlink="http://www.w3.org/1999/xlink">
    <!-- Generator: Sketch 42 (36781) - http://www.bohemiancoding.com/sketch -->
    <desc>Created with Sketch.</desc>
    <defs>
        <polygon id="path-1" points="0 149.94 0 0.027 150 0.027 150 149.94"></polygon>
    </defs>
    <g id="Icon-Review" stroke="none" stroke-width="1" fill="none" fill-rule="evenodd">
        <g id="Group-3">
            <mask id="mask-2" fill="white">
                <use xlink:href="#path-1"></use>
            </mask>
            <g id="Clip-2"></g>
            <path d="M150,75.013 C150,116.427 116.422,150 75,150 C33.579,150 0,116.427 0,75.013 C0,33.6 33.579,0.027 75,0.027 C116.422,0.027 150,33.6 150,75.013" id="Fill-1" fill="#28ABD2" mask="url(#mask-2)"></path>
        </g>
        <path d="M82.64,69.768 L74.265,79.738 C74.002,80.053 73.612,80.235 73.203,80.24 L73.188,80.24 C72.784,80.24 72.397,80.064 72.129,79.759 L67.605,74.58 C67.094,73.995 67.155,73.107 67.738,72.596 C68.323,72.084 69.211,72.146 69.722,72.729 L73.168,76.674 L80.487,67.96 C80.986,67.365 81.872,67.289 82.468,67.788 C83.062,68.286 83.139,69.173 82.64,69.768 Z M74.999,60.348 C67.998,60.348 62.323,66.023 62.323,73.024 C62.323,80.025 67.998,85.701 74.999,85.701 C82.002,85.701 87.677,80.025 87.677,73.024 C87.677,66.023 82.002,60.348 74.999,60.348 L74.999,60.348 Z" id="Fill-4" fill="#28ABD2"></path>
        <path d="M37.401,61.237 C37.758,60.513 38.343,60.513 38.701,61.237 L42.27,68.468 C42.626,69.192 43.573,69.88 44.373,69.996 L52.349,71.155 C53.151,71.272 53.331,71.827 52.753,72.391 L46.978,78.018 C46.4,78.583 46.04,79.696 46.176,80.493 L47.538,88.439 C47.677,89.235 47.202,89.578 46.487,89.203 L39.349,85.451 C38.635,85.075 37.466,85.075 36.75,85.451 L29.615,89.203 C28.898,89.578 28.428,89.235 28.564,88.439 L29.926,80.493 C30.062,79.696 29.701,78.583 29.123,78.018 L23.349,72.391 C22.77,71.827 22.953,71.272 23.75,71.155 L31.729,69.996 C32.528,69.88 33.476,69.192 33.832,68.468 L37.401,61.237" id="Fill-5" fill="#FFFFFF"></path>
        <path d="M74.35,61.237 C74.707,60.513 75.291,60.513 75.65,61.237 L79.219,68.468 C79.575,69.192 80.523,69.88 81.322,69.996 L89.301,71.155 C90.102,71.272 90.281,71.827 89.702,72.391 L83.928,78.018 C83.349,78.583 82.989,79.696 83.125,80.493 L84.487,88.439 C84.623,89.235 84.151,89.578 83.436,89.203 L76.3,85.451 C75.584,85.075 74.415,85.075 73.701,85.451 L66.563,89.203 C65.848,89.578 65.376,89.235 65.512,88.439 L66.876,80.493 C67.012,79.696 66.647,78.583 66.07,78.018 L60.299,72.391 C59.722,71.827 59.9,71.272 60.699,71.155 L68.678,69.996 C69.478,69.88 70.425,69.192 70.783,68.468 L74.35,61.237" id="Fill-6" fill="#FFFFFF"></path>
        <path d="M111.299,61.237 C111.656,60.513 112.241,60.513 112.597,61.237 L116.168,68.468 C116.522,69.192 117.471,69.88 118.27,69.996 L126.249,71.155 C127.047,71.272 127.23,71.827 126.651,72.391 L120.877,78.018 C120.298,78.583 119.936,79.696 120.074,80.493 L121.436,88.439 C121.573,89.235 121.101,89.578 120.385,89.203 L113.248,85.451 C112.532,85.075 111.364,85.075 110.648,85.451 L103.512,89.203 C102.796,89.578 102.324,89.235 102.46,88.439 L103.823,80.493 C103.961,79.696 103.598,78.583 103.019,78.018 L97.245,72.391 C96.668,71.827 96.849,71.272 97.649,71.155 L105.628,69.996 C106.427,69.88 107.372,69.192 107.728,68.468 L111.299,61.237" id="Fill-7" fill="#FFFFFF"></path>
        <polyline id="Fill-8" fill="#2D2E2C" points="91.201 117.026 78.571 81.741 113.736 94.701 99.891 103.262 91.201 117.026"></polyline>
        <polyline id="Fill-9" fill="#2D2E2C" points="114.99 114.991 111.566 118.415 94.869 101.719 98.295 98.297 114.99 114.991"></polyline>
    </g>
</svg>
