<svg width="150px" height="150px" viewBox="0 0 150 150" version="1.1" xmlns="http://www.w3.org/2000/svg" xmlns:xlink="http://www.w3.org/1999/xlink">
    <!-- Generator: Sketch 42 (36781) - http://www.bohemiancoding.com/sketch -->
    <desc>Created with Sketch.</desc>
    <defs>
        <polygon id="path-1" points="0 149.94 0 0.027 150 0.027 150 149.94"></polygon>
    </defs>
    <g id="Icon-HQReview" stroke="none" stroke-width="1" fill="none" fill-rule="evenodd">
        <g id="Group-3">
            <mask id="mask-2" fill="white">
                <use xlink:href="#path-1"></use>
            </mask>
            <g id="Clip-2"></g>
            <path d="M150,75.013 C150,116.427 116.422,150 75,150 C33.579,150 0,116.427 0,75.013 C0,33.6 33.579,0.027 75,0.027 C116.422,0.027 150,33.6 150,75.013" id="Fill-1" fill="#28ABD2" mask="url(#mask-2)"></path>
        </g>
        <path d="M94.71,113.942 L55.29,113.942 L55.29,104.258 C55.29,103.658 55.775,103.173 56.375,103.173 L93.626,103.173 C94.225,103.173 94.71,103.658 94.71,104.258 L94.71,113.942" id="Fill-4" fill="#99A0AF"></path>
        <path d="M98.28,115.026 C98.28,114.427 97.795,113.942 97.196,113.942 L52.805,113.942 C52.205,113.942 51.72,114.427 51.72,115.026 L51.72,118.256 L98.28,118.256 L98.28,115.026" id="Fill-5" fill="#2D2E2C"></path>
        <path d="M87.193,100.307 L62.807,100.307 L62.807,102.732 C62.807,102.976 63.004,103.173 63.247,103.173 L86.753,103.173 C86.996,103.173 87.193,102.976 87.193,102.732 L87.193,100.307" id="Fill-6" fill="#E2E8EB"></path>
        <path d="M78.013,83.006 L78.013,82.751 L71.987,82.751 L71.987,83.006 C71.987,89.939 68.548,96.42 62.807,100.307 L87.193,100.307 C81.452,96.42 78.013,89.939 78.013,83.006" id="Fill-7" fill="#FFFFFF"></path>
        <path d="M106.443,46.226 C106.443,45.263 105.663,44.483 104.7,44.483 L96.958,44.483 C96.873,45.66 96.767,46.823 96.639,47.969 L102.412,47.969 C102.537,47.969 102.655,48.022 102.739,48.114 C102.822,48.206 102.863,48.329 102.851,48.453 C102.17,55.61 98.23,61.828 92.541,65.616 C91.836,67.473 91.061,69.215 90.225,70.826 C99.755,66.723 106.443,57.242 106.443,46.226" id="Fill-8" fill="#E2E8EB"></path>
        <path d="M47.148,48.453 C47.137,48.329 47.178,48.206 47.262,48.114 C47.345,48.023 47.464,47.969 47.588,47.969 L53.362,47.969 C53.233,46.823 53.127,45.66 53.042,44.483 L45.3,44.483 C44.337,44.483 43.557,45.263 43.557,46.226 C43.557,57.242 50.246,66.723 59.774,70.826 C58.939,69.215 58.165,67.473 57.459,65.616 C51.769,61.828 47.831,55.61 47.148,48.453" id="Fill-9" fill="#E2E8EB"></path>
        <path d="M96.639,47.969 C96.767,46.823 96.873,45.66 96.958,44.483 C97.096,42.584 97.176,40.647 97.194,38.679 C97.197,38.445 97.105,38.219 96.94,38.053 C96.775,37.886 96.551,37.793 96.316,37.793 L53.683,37.793 C53.449,37.793 53.224,37.886 53.06,38.053 C52.894,38.219 52.804,38.445 52.806,38.679 C52.824,40.647 52.904,42.584 53.042,44.483 C53.127,45.66 53.233,46.823 53.362,47.969 C54.094,54.502 55.515,60.495 57.459,65.616 C58.165,67.473 58.939,69.215 59.774,70.826 C63.749,78.49 69.105,83.19 75,83.19 C80.894,83.19 86.251,78.49 90.225,70.826 C91.061,69.215 91.836,67.473 92.541,65.616 C94.485,60.495 95.907,54.502 96.639,47.969" id="Fill-10" fill="#FFFFFF"></path>
        <polyline id="Fill-11" fill="#28ABD2" points="75 46.845 78.012 52.948 84.747 53.926 79.874 58.677 81.024 65.385 75 62.217 68.976 65.385 70.127 58.677 65.253 53.926 71.988 52.948 75 46.845"></polyline>
    </g>
</svg>
