<svg width="150px" height="150px" viewBox="0 0 150 150" version="1.1" xmlns="http://www.w3.org/2000/svg" xmlns:xlink="http://www.w3.org/1999/xlink">
    <!-- Generator: Sketch 42 (36781) - http://www.bohemiancoding.com/sketch -->
    <desc>Created with Sketch.</desc>
    <defs>
        <polygon id="path-1" points="0 149.94 0 0.027 150 0.027 150 149.94"></polygon>
    </defs>
    <g id="Icon-Signup" stroke="none" stroke-width="1" fill="none" fill-rule="evenodd">
        <g id="Group-3">
            <mask id="mask-2" fill="white">
                <use xlink:href="#path-1"></use>
            </mask>
            <g id="Clip-2"></g>
            <path d="M150,75.013 C150,116.427 116.422,150 75,150 C33.579,150 0,116.427 0,75.013 C0,33.6 33.579,0.027 75,0.027 C116.422,0.027 150,33.6 150,75.013" id="Fill-1" fill="#28ABD2" mask="url(#mask-2)"></path>
        </g>
        <path d="M94.487,116.928 L55.514,116.928 C52.276,116.928 49.652,114.305 49.652,111.068 L49.652,38.981 C49.652,35.744 52.276,33.12 55.514,33.12 L94.487,33.12 C97.724,33.12 100.348,35.744 100.348,38.981 L100.348,111.068 C100.348,114.305 97.724,116.928 94.487,116.928" id="Fill-4" fill="#2D2E2C"></path>
        <polygon id="Fill-5" fill="#FFFFFF" points="54.341 101.691 95.659 101.691 95.659 45.527 54.341 45.527"></polygon>
        <path d="M80.714,110.287 L69.286,110.287 C67.991,110.287 66.941,109.239 66.941,107.943 C66.941,106.65 67.991,105.599 69.286,105.599 L80.714,105.599 C82.009,105.599 83.059,106.65 83.059,107.943 C83.059,109.239 82.009,110.287 80.714,110.287" id="Fill-6" fill="#000000"></path>
        <path d="M77.638,39.861 C77.638,41.317 76.456,42.498 75,42.498 C73.544,42.498 72.362,41.317 72.362,39.861 C72.362,38.404 73.544,37.223 75,37.223 C76.456,37.223 77.638,38.404 77.638,39.861" id="Fill-7" fill="#000000"></path>
        <path d="M82.64,69.768 L74.265,79.738 C74.002,80.053 73.612,80.235 73.203,80.24 L73.188,80.24 C72.784,80.24 72.397,80.064 72.129,79.759 L67.605,74.58 C67.094,73.995 67.155,73.107 67.738,72.596 C68.323,72.084 69.211,72.146 69.722,72.729 L73.168,76.674 L80.487,67.96 C80.986,67.365 81.872,67.289 82.468,67.788 C83.062,68.286 83.139,69.173 82.64,69.768 Z M74.999,60.348 C67.998,60.348 62.323,66.023 62.323,73.024 C62.323,80.025 67.998,85.701 74.999,85.701 C82.002,85.701 87.677,80.025 87.677,73.024 C87.677,66.023 82.002,60.348 74.999,60.348 L74.999,60.348 Z" id="Fill-8" fill="#28ABD2"></path>
    </g>
</svg>
